<?xml version="1.0" encoding="UTF-8"?>
<svg id="_레이어_2" data-name="레이어 2" xmlns="http://www.w3.org/2000/svg" viewBox="0 0 459.17 64.54">
  <g id="_레이어_1-2" data-name="레이어 1">
    <g>
      <g>
        <g>
          <polygon points="2.72 61.82 15.65 61.82 15.65 39.02 46.04 39.02 46.04 25.41 15.65 25.41 15.65 16.34 46.04 16.34 46.04 2.72 2.72 2.72 2.72 61.82" style="fill: #006dbb;"/>
          <path d="M18.38,64.54H0V0h48.76v19.06h-30.38v3.63h30.38v19.06h-30.38v22.8ZM5.45,59.1h7.49v-22.8h30.38v-8.17H12.93v-14.52h30.38V5.45H5.45v53.65Z" style="fill: #006dbb;"/>
        </g>
        <g>
          <polygon points="156.68 16.34 171.87 16.34 171.87 61.82 184.8 61.82 184.8 16.34 200 16.34 200 2.72 156.68 2.72 156.68 16.34" style="fill: #006dbb;"/>
          <path d="M187.53,64.54h-18.38V19.06h-15.19V0h48.76v19.06h-15.19v45.49ZM174.6,59.1h7.49V13.61h15.19V5.45h-37.87v8.17h15.19v45.49Z" style="fill: #006dbb;"/>
        </g>
        <g>
          <rect x="206.16" y="25.41" width="20.47" height="13.61" style="fill: #006dbb;"/>
          <path d="M229.36,41.75h-25.92v-19.06h25.92v19.06ZM208.88,36.3h15.03v-8.17h-15.03v8.17Z" style="fill: #006dbb;"/>
        </g>
        <g>
          <path d="M336.46,2.72h-8.62c-4.79,0-8.88,1.77-12.27,5.29-3.39,3.53-5.08,7.82-5.08,12.86h13.08c0-1.3.41-2.38,1.23-3.24.82-.86,1.86-1.3,3.09-1.3h8.65c1.23,0,2.26.43,3.09,1.3.82.86,1.24,1.94,1.24,3.24,0,1.23-.41,2.29-1.24,3.19-.82.9-1.82,1.35-2.99,1.35h-8.86c-4.74,0-8.81,1.78-12.2,5.35-3.4,3.57-5.1,7.87-5.1,12.91s1.69,9.33,5.08,12.86c3.39,3.53,7.47,5.29,12.27,5.29h8.72c4.79,0,8.86-1.78,12.21-5.35,3.35-3.57,5.03-7.83,5.03-12.8v-22.8c0-5.04-1.69-9.33-5.08-12.86-3.39-3.53-7.48-5.29-12.27-5.29ZM339.63,46.86c-.83.9-1.87,1.35-3.12,1.35h-8.72c-1.18,0-2.2-.45-3.07-1.35-.87-.9-1.3-1.96-1.3-3.19s.43-2.3,1.3-3.24c.87-.94,1.89-1.4,3.07-1.4h8.72c1.25,0,2.29.45,3.12,1.35.83.9,1.25,2,1.25,3.3,0,1.23-.42,2.29-1.25,3.19Z" style="fill: #006dbb;"/>
          <path d="M336.57,64.54h-8.72c-5.54,0-10.33-2.06-14.23-6.13-3.87-4.03-5.84-8.99-5.84-14.74s1.97-10.72,5.85-14.79c2.42-2.54,5.17-4.31,8.21-5.29h-14.06v-2.72c0-5.74,1.96-10.7,5.84-14.74,3.91-4.07,8.69-6.13,14.23-6.13h8.62c5.54,0,10.32,2.06,14.23,6.13,3.88,4.04,5.84,9,5.84,14.74v22.8c0,5.66-1.94,10.6-5.77,14.67-3.87,4.12-8.65,6.21-14.2,6.21ZM327.8,28.13c-4,0-7.35,1.47-10.23,4.5-2.92,3.07-4.34,6.68-4.34,11.03s1.41,7.94,4.32,10.97c2.88,3,6.25,4.46,10.3,4.46h8.72c4.04,0,7.39-1.47,10.23-4.49,2.89-3.07,4.29-6.65,4.29-10.94v-22.8c0-4.35-1.41-7.94-4.32-10.97-2.88-3-6.25-4.46-10.3-4.46h-8.62c-4.05,0-7.42,1.46-10.3,4.46-2.28,2.37-3.64,5.09-4.12,8.25h7.91c.33-.89.84-1.7,1.51-2.4,1.34-1.4,3.09-2.14,5.06-2.14h8.65c1.98,0,3.73.74,5.06,2.14,1.3,1.36,1.99,3.13,1.99,5.12s-.67,3.63-1.95,5.03c-1.34,1.46-3.06,2.23-4.99,2.23h-8.86ZM327.9,19.06c-.57,0-.86.18-1.12.45-.24.25-.48.61-.48,1.36v1.87c.49-.04.99-.05,1.5-.05h8.86c.33,0,.62-.08.98-.47.37-.4.52-.8.52-1.35,0-.75-.24-1.11-.48-1.36-.26-.27-.55-.45-1.12-.45h-8.65ZM336.51,50.93h-8.72c-1.92,0-3.65-.76-5.03-2.19-1.35-1.4-2.06-3.15-2.06-5.07s.7-3.66,2.02-5.09c1.38-1.49,3.13-2.28,5.06-2.28h8.72c2,0,3.77.77,5.12,2.23,1.29,1.4,1.97,3.18,1.97,5.14s-.68,3.64-1.97,5.03h0c-1.34,1.46-3.11,2.23-5.12,2.23ZM327.79,41.75c-.3,0-.63.06-1.07.53-.4.44-.57.85-.57,1.39s.16.91.54,1.3c.44.45.79.52,1.1.52h8.72c.49,0,.8-.13,1.12-.47h0c.37-.4.52-.8.52-1.34,0-.62-.16-1.05-.53-1.45-.31-.34-.63-.47-1.11-.47h-8.72Z" style="fill: #006dbb;"/>
        </g>
        <g>
          <path d="M399.93,33.73c3.39-3.6,5.09-7.89,5.09-12.86s-1.68-9.33-5.04-12.86c-3.36-3.53-7.42-5.29-12.17-5.29h-8.66c-4.82,0-8.91,1.77-12.29,5.29-3.37,3.53-5.06,7.82-5.06,12.86v40.95h12.93v-22.8h4.41v4.65c0,5.04,1.67,9.33,5.01,12.86,3.34,3.53,7.39,5.29,12.17,5.29h8.69v-13.61h-8.65c-1.16,0-2.16-.45-3.01-1.35-.85-.9-1.27-1.96-1.27-3.19v-5.19c3.05-.79,5.67-2.38,7.84-4.75ZM390.8,24.06c-.86.9-1.88,1.35-3.05,1.35h-13.01v-4.54c0-1.3.42-2.38,1.26-3.24.84-.86,1.89-1.3,3.15-1.3h8.62c1.23,0,2.26.43,3.08,1.3.82.86,1.23,1.94,1.23,3.24,0,1.23-.43,2.29-1.29,3.19Z" style="fill: #006dbb;"/>
          <path d="M407.75,64.54h-11.41c-5.53,0-10.29-2.07-14.15-6.15-2.21-2.33-3.78-4.97-4.72-7.88v14.03h-18.38V20.87c0-5.74,1.96-10.7,5.81-14.74,3.89-4.07,8.69-6.14,14.26-6.14h8.66c5.5,0,10.26,2.07,14.14,6.14,3.84,4.04,5.79,9,5.79,14.74s-1.96,10.61-5.82,14.71c-2.03,2.21-4.41,3.85-7.11,4.88v3.2c0,.53.16.92.53,1.32.39.41.69.49,1.02.49h11.38v19.06ZM372.03,36.3h9.86v7.37c0,4.36,1.39,7.95,4.26,10.99,2.83,2.99,6.16,4.44,10.19,4.44h5.97v-8.17h-5.93c-1.9,0-3.63-.76-4.99-2.21-1.32-1.4-2.01-3.15-2.01-5.05v-7.29l2.04-.53c2.56-.66,4.69-1.96,6.51-3.95l.03-.03c2.93-3.11,4.35-6.7,4.35-10.99s-1.4-7.95-4.29-10.98c-2.85-2.99-6.19-4.45-10.2-4.45h-8.66c-4.08,0-7.45,1.46-10.32,4.45-2.89,3.03-4.3,6.62-4.3,10.98v38.23h7.49v-22.8ZM387.76,28.13h-15.73v-7.26c0-2,.7-3.77,2.03-5.14,1.35-1.39,3.12-2.12,5.11-2.12h8.62c1.97,0,3.72.74,5.05,2.14,1.29,1.36,1.98,3.13,1.98,5.12s-.71,3.67-2.04,5.07h0c-1.37,1.44-3.1,2.19-5.01,2.19ZM377.47,22.69h10.29c.31,0,.65-.06,1.08-.51h0c.38-.39.54-.79.54-1.31,0-.76-.24-1.12-.48-1.37-.26-.27-.54-.45-1.1-.45h-8.62c-.53,0-.87.14-1.2.47-.24.25-.49.6-.49,1.34v1.82Z" style="fill: #006dbb;"/>
        </g>
        <g>
          <polygon points="413.14 2.72 413.14 16.34 428.33 16.34 428.33 61.82 441.26 61.82 441.26 16.34 456.45 16.34 456.45 2.72 413.14 2.72" style="fill: #006dbb;"/>
          <path d="M443.98,64.54h-18.38V19.06h-15.19V0h48.76v19.06h-15.19v45.49ZM431.05,59.1h7.49V13.61h15.19V5.45h-37.87v8.17h15.19v45.49Z" style="fill: #006dbb;"/>
        </g>
        <g>
          <path d="M80.01,2.72h-8.62c-4.79,0-8.88,1.77-12.27,5.29-3.39,3.53-5.08,7.82-5.08,12.86v23.23c0,4.9,1.73,9.08,5.18,12.53,3.45,3.46,7.51,5.19,12.16,5.19h8.62c4.65,0,8.71-1.73,12.16-5.19,3.45-3.46,5.18-7.63,5.18-12.53v-23.23c0-5.04-1.69-9.33-5.08-12.86-3.39-3.53-7.48-5.29-12.27-5.29ZM85.86,46.76l-10.33-5.19-10.13,5.57,1.74-11.43-8.43-7.91,11.41-1.88,4.92-10.46,5.31,10.27,11.47,1.45-8.13,8.22,2.17,11.36Z" style="fill: #006dbb;"/>
          <path d="M80.01,64.54h-8.62c-5.38,0-10.12-2.01-14.09-5.98-3.97-3.97-5.98-8.83-5.98-14.46v-23.23c0-5.74,1.96-10.7,5.84-14.74,3.91-4.07,8.69-6.13,14.23-6.13h8.62c5.54,0,10.32,2.06,14.23,6.13,3.87,4.04,5.84,9,5.84,14.74v23.23c0,5.62-2.01,10.49-5.98,14.46-3.97,3.97-8.71,5.99-14.09,5.99ZM56.76,29.71v14.39c0,4.19,1.43,7.66,4.39,10.61,2.95,2.95,6.3,4.39,10.24,4.39h8.62c3.94,0,7.28-1.44,10.24-4.39,2.95-2.95,4.39-6.42,4.39-10.61v-15.9l-8,8.1,2.93,15.37-13.98-7.02-13.71,7.54,2.36-15.47-7.47-7.01ZM64.59,29.59l5.45,5.12-1.12,7.39,6.55-3.6,6.68,3.35-1.4-7.34,5.25-5.32-7.42-.94-3.43-6.64-3.18,6.77-7.38,1.21ZM71.39,5.45c-4.05,0-7.42,1.46-10.3,4.46-2.91,3.03-4.32,6.62-4.32,10.97v4.49l11.5-1.89,6.66-14.16,7.19,13.9,12.52,1.58v-3.92c0-4.35-1.41-7.94-4.32-10.97-2.88-3-6.25-4.46-10.3-4.46h-8.62Z" style="fill: #006dbb;"/>
        </g>
        <g>
          <path d="M131.33,2.72h-8.62c-4.79,0-8.88,1.77-12.27,5.29-3.39,3.53-5.08,7.82-5.08,12.86v23.23c0,4.9,1.73,9.08,5.18,12.53,3.45,3.46,7.51,5.19,12.16,5.19h8.62c4.65,0,8.71-1.73,12.16-5.19,3.45-3.46,5.18-7.63,5.18-12.53v-23.23c0-5.04-1.69-9.33-5.08-12.86-3.39-3.53-7.48-5.29-12.27-5.29ZM137.47,46.76l-10.33-5.19-10.13,5.57,1.74-11.43-8.43-7.91,11.41-1.88,4.92-10.46,5.31,10.27,11.47,1.45-8.13,8.22,2.17,11.36Z" style="fill: #006dbb;"/>
          <path d="M131.33,64.54h-8.62c-5.38,0-10.12-2.01-14.09-5.99-3.97-3.97-5.98-8.83-5.98-14.46v-23.23c0-5.74,1.96-10.7,5.84-14.74,3.91-4.07,8.69-6.13,14.23-6.13h8.62c5.54,0,10.32,2.06,14.23,6.13,3.88,4.04,5.84,9,5.84,14.74v23.23c0,5.62-2.01,10.49-5.98,14.46-3.97,3.97-8.71,5.99-14.09,5.99ZM108.08,29.44v14.67c0,4.19,1.43,7.66,4.39,10.61,2.95,2.95,6.3,4.39,10.24,4.39h8.62c3.94,0,7.29-1.44,10.24-4.39,2.95-2.96,4.39-6.42,4.39-10.61v-15.6l-7.71,7.8,2.93,15.37-13.98-7.02-13.71,7.54,2.36-15.47-7.76-7.28ZM116.21,29.59l5.45,5.12-1.13,7.39,6.55-3.6,6.68,3.35-1.4-7.34,5.25-5.32-7.42-.94-3.43-6.64-3.18,6.77-7.38,1.21ZM122.71,5.45c-4.05,0-7.42,1.46-10.3,4.46-2.91,3.03-4.32,6.62-4.32,10.97v4.54l11.79-1.94,6.66-14.16,7.19,13.9,12.23,1.54v-3.88c0-4.35-1.41-7.94-4.32-10.97-2.88-3-6.25-4.46-10.3-4.46h-8.62Z" style="fill: #006dbb;"/>
        </g>
        <g>
          <path d="M286.65,2.97h-44.41v56.65h12.11V16.08h12.13v43.54h12.14V16.08h8.09c1.14,0,2.12.41,2.88,1.24.76.82,1.15,1.84,1.15,3.09v39.2h12.13V20.39c0-4.84-1.58-8.94-4.72-12.34-3.11-3.36-6.95-5.08-11.5-5.08Z" style="fill: #006dbb;"/>
          <path d="M305.6,62.34h-17.58V20.41c0-.69-.22-1.02-.43-1.25-.21-.23-.43-.37-.88-.37h-5.37v43.54h-17.58V18.8h-6.69v43.54h-17.56V.25h47.14c5.3,0,9.84,2,13.5,5.96,3.61,3.91,5.44,8.68,5.44,14.19v41.96ZM293.47,56.9h6.69V20.39c0-4.15-1.31-7.58-4-10.49-2.62-2.83-5.73-4.21-9.5-4.21h-41.69v51.21h6.67V13.35h17.58v43.54h6.69V13.35h10.72c2.02,0,3.71.74,4.98,2.13,1.22,1.31,1.87,3.02,1.87,4.93v36.48Z" style="fill: #006dbb;"/>
        </g>
      </g>
      <g>
        <polygon points="2.72 61.82 15.65 61.82 15.65 39.02 46.04 39.02 46.04 25.41 15.65 25.41 15.65 16.34 46.04 16.34 46.04 2.72 2.72 2.72 2.72 61.82" style="fill: #fff100;"/>
        <polygon points="156.68 16.34 171.87 16.34 171.87 61.82 184.8 61.82 184.8 16.34 200 16.34 200 2.72 156.68 2.72 156.68 16.34" style="fill: #fff100;"/>
        <rect x="206.16" y="25.41" width="20.47" height="13.61" style="fill: #fff100;"/>
        <path d="M336.46,2.72h-8.62c-4.79,0-8.88,1.77-12.27,5.29-3.39,3.53-5.08,7.82-5.08,12.86h13.08c0-1.3.41-2.38,1.23-3.24.82-.86,1.86-1.3,3.09-1.3h8.65c1.23,0,2.26.43,3.09,1.3.82.86,1.24,1.94,1.24,3.24,0,1.23-.41,2.29-1.24,3.19-.82.9-1.82,1.35-2.99,1.35h-8.86c-4.74,0-8.81,1.78-12.2,5.35-3.4,3.57-5.1,7.87-5.1,12.91s1.69,9.33,5.08,12.86c3.39,3.53,7.47,5.29,12.27,5.29h8.72c4.79,0,8.86-1.78,12.21-5.35,3.35-3.57,5.03-7.83,5.03-12.8v-22.8c0-5.04-1.69-9.33-5.08-12.86-3.39-3.53-7.48-5.29-12.27-5.29ZM339.63,46.86c-.83.9-1.87,1.35-3.12,1.35h-8.72c-1.18,0-2.2-.45-3.07-1.35-.87-.9-1.3-1.96-1.3-3.19s.43-2.3,1.3-3.24c.87-.94,1.89-1.4,3.07-1.4h8.72c1.25,0,2.29.45,3.12,1.35.83.9,1.25,2,1.25,3.3,0,1.23-.42,2.29-1.25,3.19Z" style="fill: #fff100;"/>
        <path d="M399.93,33.73c3.39-3.6,5.09-7.89,5.09-12.86s-1.68-9.33-5.04-12.86c-3.36-3.53-7.42-5.29-12.17-5.29h-8.66c-4.82,0-8.91,1.77-12.29,5.29-3.37,3.53-5.06,7.82-5.06,12.86v40.95h12.93v-22.8h4.41v4.65c0,5.04,1.67,9.33,5.01,12.86,3.34,3.53,7.39,5.29,12.17,5.29h8.69v-13.61h-8.65c-1.16,0-2.16-.45-3.01-1.35-.85-.9-1.27-1.96-1.27-3.19v-5.19c3.05-.79,5.67-2.38,7.84-4.75ZM390.8,24.06c-.86.9-1.88,1.35-3.05,1.35h-13.01v-4.54c0-1.3.42-2.38,1.26-3.24.84-.86,1.89-1.3,3.15-1.3h8.62c1.23,0,2.26.43,3.08,1.3.82.86,1.23,1.94,1.23,3.24,0,1.23-.43,2.29-1.29,3.19Z" style="fill: #fff100;"/>
        <polygon points="413.14 2.72 413.14 16.34 428.33 16.34 428.33 61.82 441.26 61.82 441.26 16.34 456.45 16.34 456.45 2.72 413.14 2.72" style="fill: #fff100;"/>
        <path d="M80.01,2.72h-8.62c-4.79,0-8.88,1.77-12.27,5.29-3.39,3.53-5.08,7.82-5.08,12.86v23.23c0,4.9,1.73,9.08,5.18,12.53,3.45,3.46,7.51,5.19,12.16,5.19h8.62c4.65,0,8.71-1.73,12.16-5.19,3.45-3.46,5.18-7.63,5.18-12.53v-23.23c0-5.04-1.69-9.33-5.08-12.86-3.39-3.53-7.48-5.29-12.27-5.29ZM85.86,46.76l-10.33-5.19-10.13,5.57,1.74-11.43-8.43-7.91,11.41-1.88,4.92-10.46,5.31,10.27,11.47,1.45-8.13,8.22,2.17,11.36Z" style="fill: #fff100;"/>
        <path d="M131.33,2.72h-8.62c-4.79,0-8.88,1.77-12.27,5.29-3.39,3.53-5.08,7.82-5.08,12.86v23.23c0,4.9,1.73,9.08,5.18,12.53,3.45,3.46,7.51,5.19,12.16,5.19h8.62c4.65,0,8.71-1.73,12.16-5.19,3.45-3.46,5.18-7.63,5.18-12.53v-23.23c0-5.04-1.69-9.33-5.08-12.86-3.39-3.53-7.48-5.29-12.27-5.29ZM137.47,46.76l-10.33-5.19-10.13,5.57,1.74-11.43-8.43-7.91,11.41-1.88,4.92-10.46,5.31,10.27,11.47,1.45-8.13,8.22,2.17,11.36Z" style="fill: #fff100;"/>
        <path d="M286.65,2.97h-44.41v56.65h12.11V16.08h12.13v43.54h12.14V16.08h8.09c1.14,0,2.12.41,2.88,1.24.76.82,1.15,1.84,1.15,3.09v39.2h12.13V20.39c0-4.84-1.58-8.94-4.72-12.34-3.11-3.36-6.95-5.08-11.5-5.08Z" style="fill: #fff100;"/>
      </g>
    </g>
  </g>
</svg>