<?xml version="1.0" encoding="UTF-8"?>
<svg id="_레이어_2" data-name="레이어 2" xmlns="http://www.w3.org/2000/svg" viewBox="0 0 663.5 147.84">
  <g id="Layer_1" data-name="Layer 1">
    <g>
      <path d="M268.17,73.76c7.32,4.67,12.51,10.97,15.13,18.65,2.61,7.68,2.64,16.74-.33,24.29-2.97,7.55-8.95,13.59-17.05,18.08-8.1,4.48-18.34,7.41-32.81,7.55-14.49.14-33.23-2.5-53-12.46,2.77-5.45,5.54-10.9,8.32-16.35.75-1.47,2.51-2.11,4.03-1.45,13.72,5.98,27.75,9.13,39.17,9.08,12.16-.05,21.35-3.74,25.26-9.25,3.91-5.5,2.56-12.84-1.93-17.87-4.48-5.03-12.1-7.77-23.14-10.9-11.04-3.14-25.52-6.66-34.83-12.37-9.31-5.71-13.47-13.61-14.7-21.98-1.23-8.37.46-17.21,5.37-24.91,4.91-7.7,13.03-14.24,27.58-16.83,13.99-2.49,33.92-1.33,60.28,8.92,1.69.66,2.46,2.61,1.69,4.25-2.61,5.52-5.22,11.04-7.83,16.57-22.2-7.77-35.03-9.66-44.24-8.77-9.21.9-14.77,4.59-16.9,9.46-2.12,4.88-.8,10.95,5.39,15.4,6.19,4.45,17.25,7.28,27.51,10.23,10.26,2.94,19.71,5.99,27.04,10.67Z" style="fill: #ce0e2d;"/>
      <path d="M298.21,11.55h112c-4.67,6.03-9.34,12.06-14,18.09-.57.74-1.45,1.17-2.39,1.17h-35.62v111.22h-23.14V30.8h-47.28c2.55-5.81,5.11-11.63,7.66-17.45.48-1.1,1.57-1.8,2.76-1.8Z" style="fill: #ce0e2d;"/>
      <path d="M592.7,5.52c39.04,0,70.81,30.62,70.81,68.25s-31.77,68.25-70.81,68.25c-23.16,0-44.89-10.96-58.15-29.31-6.04-8.37-10.11-18.1-11.76-28.14-.59-3.56-.89-7.2-.89-10.8s.3-7.32.91-10.93c1.67-10.04,5.77-19.76,11.83-28.13,13.25-18.28,34.96-29.19,58.07-29.19ZM591.94,119.41c25.26,0,45.81-20.57,45.81-45.86s-20.55-45.86-45.81-45.86c-20.59,0-38.76,13.88-44.18,33.75-1.08,3.95-1.62,8.02-1.62,12.11s.55,8.22,1.65,12.2c5.45,19.82,23.6,33.66,44.15,33.66Z" style="fill: #ce0e2d;"/>
      <path d="M0,0h147.84v147.84H0V0ZM141.02,141.02V22.11l-35.65,69.94-5.12-10.06L138.55,6.83h-38.98l-18.85,36.98-5.13-10.06,13.73-26.92h-32.59l45.6,89.48-21.82,44.71h60.52ZM64.93,54.66l5.13,10.06-12.82,25.17-.73,1.42-.52,1.04c-.32.94-.5,1.94-.5,2.99,0,1.12.2,2.18.56,3.18l.4.82.5,1.04,16.06,32.9,16.12-33.04.78-1.59.12-.24h-.03c.33-.96.52-1.99.52-3.06s-.19-2.13-.53-3.1l-.09-.18-1.07-2.1L46.46,6.83H8.58l36.07,70.77.55,1.09c.17.53.27,1.16.27,1.84,0,.86-.16,1.63-.42,2.23-.07.17-.15.31-.22.44l-3.79,7.44L6.83,23.5v117.51h58.7l-21.82-44.71,21.22-41.65Z" style="fill: #ce0e2d;"/>
      <path d="M518.66,118.71c.36.6.46,1.31.29,1.99-.08.34-.24.66-.44.94-.1.13-.21.25-.33.36-.19.17-.38.35-.57.52-1.51,1.35-3.05,2.65-4.65,3.9-2.98,2.33-6.09,4.44-9.37,6.32-5.87,3.36-12.11,5.86-18.7,7.4-5.89,1.37-11.89,1.94-17.93,1.75-5.5-.17-10.96-.97-16.29-2.31-7.05-1.77-13.8-4.43-20.06-8.17-5.54-3.31-10.51-7.35-14.89-12.1-2.07-2.24-3.96-4.59-5.72-7.08-.86-1.22-1.68-2.46-2.47-3.72-.78-1.25-1.51-2.52-2.21-3.82-2.77-5.15-4.86-10.58-6.17-16.29-1.23-5.36-1.73-10.78-1.58-16.27.17-5.88,1.1-11.99,2.7-17.65,1.8-6.37,4.49-12.38,8.14-17.92,4.16-6.3,9.34-11.64,15.4-16.11,2.14-1.58,4.34-3.02,6.64-4.36,2.46-1.43,4.97-2.72,7.57-3.88,5.59-2.5,11.49-4.38,17.51-5.52,6.53-1.23,13.17-1.59,19.79-.97,7.28.68,14.3,2.5,21,5.41,4.08,1.77,7.97,3.9,11.67,6.35,1.99,1.32,3.92,2.72,5.8,4.2.98.77,1.94,1.56,2.88,2.37.48.41.96.83,1.43,1.26.14.13.27.24.39.39.1.12.19.25.27.39.33.59.43,1.28.26,1.94-.04.16-.09.3-.16.45-.06.14-.14.28-.22.41-.17.28-.33.56-.5.83-.67,1.11-1.33,2.23-2,3.34-1.33,2.23-2.67,4.45-4,6.68-1.33,2.23-2.67,4.45-4,6.68-.04.07-.08.14-.12.21,0,0,0,0,0,0,0,0,0,0,0,0,0,0,0,0,0,0,0,0,0,0-.01-.01,0,0-.01-.02-.02-.02-.01-.02-.03-.03-.04-.05-.03-.03-.06-.07-.09-.1-.12-.13-.23-.26-.35-.39-.24-.26-.47-.52-.71-.78-.48-.52-.98-1.03-1.48-1.53-1.02-1.01-2.07-1.99-3.16-2.92-4.42-3.78-9.42-6.86-14.8-9.08-6.16-2.54-12.78-3.92-19.46-3.88-3.03.02-5.98.33-8.95.95-2.93.61-5.79,1.51-8.55,2.68-12,5.09-21.26,15.05-25.48,27.39-1.02,2.99-1.73,6.08-2.12,9.22-.37,2.99-.44,6-.22,9,.47,6.37,2.27,12.56,5.28,18.19,3.14,5.88,7.52,11.01,12.84,15.02,5.07,3.83,10.88,6.55,17.06,8.01,2.87.68,5.83,1.08,8.77,1.22,3.15.15,6.31,0,9.44-.45,6.6-.94,12.98-3.15,18.75-6.49,2.86-1.65,5.56-3.58,8.06-5.76,1.21-1.06,2.37-2.17,3.47-3.34.54-.57,1.07-1.16,1.58-1.75.13-.15.25-.3.38-.45.02-.02.03-.04.05-.06,0,0,.02-.02.02-.03,0,0,0,0,0,0,0,0,0,0,0,0,0,0,0,0,0,0,0,0,0,.01,0,.02.03.04.05.08.07.13.05.08.1.17.15.25.2.34.4.67.6,1.01,3.19,5.37,6.37,10.75,9.56,16.12Z" style="fill: #ce0e2d;"/>
    </g>
  </g>
</svg>