<?xml version="1.0" encoding="UTF-8"?>
<svg id="_레이어_2" data-name="레이어 2" xmlns="http://www.w3.org/2000/svg" viewBox="0 0 257.8 79.26">
  <g id="_레이어_1-2" data-name="레이어 1">
    <g>
      <path d="M3.09,63.4c-.62-1.16-1.13-2.35-1.54-3.59-.41-1.18-.73-2.39-.97-3.63-.23-1.23-.4-2.47-.5-3.7-.05-.1-.08-.22-.08-.35v-2.51c0-.05.01-.12.04-.19.03-.08.04-.14.04-.19.05-.62.12-1.23.19-1.85.08-.62.17-1.23.27-1.85.1-.57.24-1.16.42-1.77.18-.62.37-1.23.58-1.85.41-1.18.93-2.35,1.54-3.51.62-1.16,1.31-2.3,2.08-3.43,1.34-1.95,2.89-3.7,4.67-5.25,1.77-1.54,3.74-2.88,5.9-4.01,2.16-1.13,4.39-1.98,6.67-2.55,2.29-.57,4.67-.85,7.14-.85s4.78.28,7.1.85c2.31.57,4.55,1.42,6.71,2.55,2.16,1.13,4.12,2.47,5.86,4.01,1.75,1.54,3.32,3.29,4.71,5.25.77,1.13,1.45,2.28,2.04,3.43.59,1.16,1.09,2.33,1.51,3.51.41,1.18.76,2.38,1.04,3.59.28,1.21.45,2.4.5,3.59v.19c0,.08.03.17.08.27v1.39c0,1.39-.12,2.75-.35,4.09-.23,1.34-.55,2.68-.96,4.01-.46,1.34-1,2.65-1.62,3.94-.62,1.29-1.36,2.55-2.24,3.78-1.39,2.01-2.96,3.78-4.71,5.32-1.75,1.54-3.7,2.86-5.86,3.94-2.16,1.13-4.4,1.96-6.71,2.47-2.31.51-4.68.77-7.1.77s-4.85-.26-7.14-.77c-2.29-.51-4.51-1.34-6.67-2.47-2.16-1.08-4.13-2.39-5.9-3.94-1.78-1.54-3.33-3.32-4.67-5.32v-.08c-.77-1.03-1.47-2.12-2.08-3.28ZM18.56,56.11c.59,1.59,1.45,2.98,2.58,4.17,1.18,1.23,2.47,2.15,3.86,2.74,1.39.59,2.88.89,4.48.89h.58c.18,0,.37-.03.58-.08.2,0,.4-.01.58-.04.18-.03.37-.06.58-.12,1.39-.26,2.66-.76,3.82-1.5,1.16-.74,2.2-1.68,3.13-2.82.93-1.18,1.62-2.48,2.08-3.9.46-1.41.69-2.92.69-4.51v-.62c-.05-.1-.08-.21-.08-.31v-.31c0-.2-.01-.41-.04-.62-.03-.2-.06-.41-.12-.62-.26-1.59-.73-3.03-1.43-4.32-.69-1.28-1.58-2.42-2.66-3.39-1.13-.98-2.33-1.71-3.59-2.2-1.26-.49-2.61-.73-4.05-.73-1.65,0-3.16.31-4.55.93-1.39.62-2.67,1.54-3.86,2.78-1.13,1.23-1.99,2.62-2.58,4.17-.59,1.54-.89,3.27-.89,5.17v-.08c0,1.96.29,3.73.89,5.32Z" style="fill: #d7251e;"/>
      <path d="M66.01,68.3c.08-.31.17-.59.27-.85.1-.26.23-.5.39-.73.15-.23.31-.45.46-.66l21.84-27.7h-14.74c-.51.05-1.03.03-1.54-.08-.52-.1-1-.26-1.47-.46-.52-.2-.98-.45-1.39-.73-.41-.28-.8-.6-1.16-.96-.36-.41-.68-.82-.96-1.24-.28-.41-.53-.85-.73-1.31-.21-.46-.35-.93-.42-1.39-.08-.46-.12-.95-.12-1.47s.05-1.02.16-1.5c.1-.49.26-.96.46-1.43.21-.46.46-.91.77-1.35.31-.44.64-.84,1-1.2.36-.36.75-.67,1.16-.93.41-.26.85-.49,1.31-.69.46-.15.94-.28,1.43-.39.49-.1.99-.15,1.5-.15l32.02-.08c.1.05.19.08.27.08h.19c.1.05.19.08.27.08h.19c.15,0,.31.01.46.04.15.03.31.06.46.12,1.03.21,1.93.57,2.7,1.08.77.52,1.44,1.13,2.01,1.85.56.77.99,1.54,1.27,2.32.28.77.43,1.59.43,2.47v.39c-.05.1-.08.18-.08.23v.54c-.05.1-.08.18-.08.23v.15c-.05.15-.09.3-.12.42-.03.13-.06.24-.11.35-.05.15-.1.3-.16.42-.05.13-.1.24-.15.35-.1.21-.22.4-.35.58-.13.18-.24.35-.35.5-.05.05-.1.13-.15.23-.05.1-.1.18-.15.23-.1.1-.18.19-.23.27-.05.08-.1.17-.15.27l-21.61,27.01h18.91c1.03.05,1.99.27,2.89.66.9.39,1.74.94,2.51,1.66.72.77,1.27,1.61,1.66,2.51.39.9.58,1.89.58,2.97s-.19,2.07-.58,2.97c-.39.9-.96,1.71-1.74,2.43-.77.77-1.61,1.33-2.51,1.66-.9.33-1.86.5-2.89.5h-35.73c-1.29,0-2.43-.17-3.43-.5-1-.33-1.89-.89-2.66-1.66-.77-.72-1.35-1.54-1.74-2.47-.39-.93-.58-1.93-.58-3.01v-.23s.03-.1.08-.15v-.69c0-.1.01-.2.04-.31.03-.1.06-.2.12-.31v-.08c.1-.26.19-.54.27-.85Z" style="fill: #d7251e;"/>
      <path d="M126.16,75.32c-.31-.51-.59-1.05-.85-1.62-.21-.57-.37-1.13-.5-1.7-.13-.57-.19-1.16-.19-1.77V31.18c0-1.13.22-2.22.66-3.28.44-1.05,1.09-2.02,1.97-2.89.87-.87,1.84-1.52,2.89-1.93,1.05-.41,2.23-.62,3.51-.62,1.24.05,2.38.3,3.43.73,1.05.44,1.99,1.09,2.82,1.97.87.88,1.52,1.84,1.93,2.89.41,1.06.62,2.17.62,3.36v10.96l15.66-16.98c.21-.15.41-.32.62-.5.21-.18.41-.35.62-.5.2-.15.42-.31.66-.46.23-.15.47-.31.73-.46.1-.05.19-.09.27-.12.08-.02.14-.06.19-.12.1,0,.19-.01.27-.04.08-.03.14-.06.19-.12.15-.05.31-.1.46-.15.15-.05.33-.1.54-.15h.27c.08,0,.14-.03.19-.08h.73c.08,0,.14-.03.19-.08h.46c.88,0,1.7.12,2.47.35.77.23,1.54.58,2.32,1.04.77.46,1.44,1.02,2.01,1.66.56.64,1.03,1.4,1.39,2.28.1.36.22.71.35,1.04.13.33.22.66.27.96.1.31.15.62.15.93v.93c0,.57-.05,1.12-.15,1.66-.1.54-.26,1.04-.46,1.5-.21.51-.44.98-.69,1.39-.26.41-.57.77-.93,1.08l-12.19,11.5,13.97,15.51c.41.46.75.93,1,1.39.26.46.49.95.69,1.47.15.52.28,1.03.39,1.54.1.51.15,1.03.15,1.54,0,.67-.08,1.31-.23,1.93-.15.62-.36,1.23-.62,1.85-.31.62-.67,1.18-1.08,1.7-.41.51-.9.98-1.47,1.39-.26.21-.53.39-.81.54-.28.15-.55.31-.81.46-.15.05-.31.1-.46.15-.15.05-.28.1-.39.15h-.27c-.08,0-.14.02-.19.08-.1,0-.18.01-.23.04-.05.03-.13.04-.23.04-.21.05-.4.09-.58.12-.18.03-.37.06-.58.12h-.31c-.1,0-.18.03-.23.08h-.62c-.67,0-1.31-.07-1.93-.19-.62-.13-1.21-.3-1.78-.5-.62-.26-1.16-.55-1.62-.89-.46-.33-.88-.73-1.24-1.2l-17.21-20.91v14.89c0,.67-.05,1.29-.16,1.85-.1.57-.28,1.13-.54,1.7-.21.51-.48,1.03-.81,1.54-.34.51-.71.98-1.12,1.39-.36.36-.77.69-1.23,1-.46.31-.93.57-1.39.77-.21.05-.44.12-.69.19-.26.08-.49.14-.69.19-.26.05-.5.1-.73.15-.23.05-.48.1-.73.15h-1.54c-.52-.05-1.02-.14-1.51-.27-.49-.13-.96-.27-1.43-.42-.46-.21-.9-.46-1.31-.77-.41-.31-.82-.64-1.24-1v-.08c-.41-.36-.77-.8-1.08-1.31Z" style="fill: #d7251e;"/>
      <path d="M182.57,75.32c-.31-.51-.59-1.03-.85-1.54-.2-.57-.37-1.13-.5-1.7-.13-.57-.19-1.16-.19-1.77V31.34c0-1.18.22-2.3.66-3.36.44-1.05,1.09-2.02,1.97-2.89.88-.87,1.84-1.52,2.89-1.93,1.05-.41,2.2-.62,3.43-.62s2.38.22,3.43.66c1.05.44,1.99,1.09,2.82,1.97.87.88,1.53,1.84,1.97,2.89.44,1.06.66,2.2.66,3.43v38.89c0,.62-.05,1.21-.15,1.78-.1.57-.28,1.13-.54,1.7-.21.51-.48,1.03-.81,1.54-.34.51-.71.98-1.12,1.39-.46.41-.93.77-1.39,1.08-.46.31-.98.54-1.54.69-.51.2-1.07.36-1.66.46-.59.1-1.17.15-1.74.15h-.77c-.52-.05-1.02-.14-1.51-.27-.49-.13-.96-.27-1.43-.42-.46-.21-.9-.46-1.31-.77-.41-.31-.82-.64-1.24-1v-.08c-.41-.36-.77-.8-1.08-1.31Z" style="fill: #d7251e;"/>
      <path d="M206.45,68.3c.08-.31.17-.59.27-.85.1-.26.23-.5.39-.73.15-.23.31-.45.46-.66l21.84-27.7h-14.74c-.52.05-1.03.03-1.54-.08-.51-.1-1-.26-1.47-.46-.52-.2-.98-.45-1.39-.73-.41-.28-.8-.6-1.16-.96-.36-.41-.68-.82-.96-1.24-.28-.41-.53-.85-.73-1.31-.21-.46-.35-.93-.42-1.39-.08-.46-.12-.95-.12-1.47s.05-1.02.15-1.5c.1-.49.26-.96.46-1.43.21-.46.46-.91.77-1.35.31-.44.64-.84,1-1.2.36-.36.74-.67,1.16-.93.41-.26.85-.49,1.31-.69.46-.15.94-.28,1.43-.39.49-.1.99-.15,1.51-.15l32.02-.08c.1.05.19.08.27.08h.19c.1.05.19.08.27.08h.19c.15,0,.31.01.46.04.15.03.31.06.46.12,1.03.21,1.93.57,2.7,1.08.77.52,1.44,1.13,2.01,1.85.57.77.99,1.54,1.27,2.32.28.77.42,1.59.42,2.47v.39c-.05.1-.08.18-.08.23v.54c-.05.1-.08.18-.08.23v.15c-.05.15-.09.3-.12.42-.03.13-.06.24-.11.35-.05.15-.1.3-.16.42-.05.13-.1.24-.15.35-.1.21-.22.4-.35.58-.13.18-.24.35-.35.5-.05.05-.1.13-.15.23-.05.1-.1.18-.15.23-.1.1-.18.19-.23.27-.05.08-.1.17-.15.27l-21.61,27.01h18.91c1.03.05,1.99.27,2.89.66.9.39,1.74.94,2.51,1.66.72.77,1.27,1.61,1.66,2.51.39.9.58,1.89.58,2.97s-.19,2.07-.58,2.97c-.39.9-.96,1.71-1.74,2.43-.77.77-1.61,1.33-2.51,1.66-.9.33-1.86.5-2.89.5h-35.73c-1.29,0-2.43-.17-3.43-.5-1-.33-1.89-.89-2.66-1.66-.77-.72-1.35-1.54-1.74-2.47-.39-.93-.58-1.93-.58-3.01v-.23s.03-.1.08-.15v-.69c0-.1.01-.2.04-.31.03-.1.06-.2.12-.31v-.08c.1-.26.19-.54.27-.85Z" style="fill: #d7251e;"/>
    </g>
    <path d="M190.91.7l2.39,4.84c.18.37.54.63.95.69l5.35.78c1.03.15,1.45,1.42.7,2.15l-3.87,3.77c-.3.29-.43.71-.36,1.12l.91,5.32c.18,1.03-.9,1.81-1.83,1.33l-4.78-2.51c-.37-.19-.81-.19-1.17,0l-4.78,2.51c-.92.49-2-.3-1.83-1.33l.91-5.33c.07-.41-.06-.82-.36-1.11l-3.87-3.77c-.75-.73-.33-2,.7-2.15l5.34-.78c.41-.06.76-.32.95-.69l2.39-4.84c.46-.94,1.8-.94,2.26,0" style="fill: #d61e19;"/>
  </g>
</svg>