<svg width="81" height="8" viewBox="0 0 81 8" fill="none" xmlns="http://www.w3.org/2000/svg">
<g clip-path="url(#clip0_105_326)">
<path d="M19.9722 5.10227C20.0032 5.18087 20.0329 5.25946 20.0627 5.33935C20.0924 5.25817 20.1234 5.17829 20.1557 5.10227C20.188 5.02754 20.2255 4.95152 20.2669 4.87422L22.4226 0.970205C22.4601 0.901917 22.5001 0.860686 22.5415 0.845225C22.5841 0.831052 22.6423 0.82461 22.7198 0.82461H23.3557V7.1741H22.5997V2.50862C22.5997 2.44677 22.6009 2.37977 22.6048 2.3102C22.6074 2.23933 22.6113 2.16589 22.6177 2.09245L20.4362 6.06217C20.3612 6.19488 20.2578 6.26188 20.1247 6.26188H20.0006C19.8675 6.26188 19.7628 6.19617 19.6892 6.06217L17.4585 2.07956C17.4675 2.15558 17.474 2.2316 17.4791 2.30504C17.483 2.37977 17.4856 2.44677 17.4856 2.50862V7.1741H16.7295V0.82461H17.3654C17.4417 0.82461 17.5011 0.83234 17.5425 0.845225C17.5851 0.860686 17.6252 0.901917 17.6627 0.970205L19.8636 4.87808C19.905 4.94895 19.9412 5.02496 19.9722 5.10227Z" fill="black"/>
<path d="M28.5951 0.82461H27.7331V7.1741H28.5951V0.82461Z" fill="black"/>
<path d="M33.5851 0.854244C33.6213 0.873571 33.6639 0.912224 33.7118 0.971493L37.4003 5.75552C37.3925 5.6795 37.3861 5.60477 37.3835 5.53133C37.3809 5.45917 37.3783 5.3896 37.3783 5.32131V0.82461H38.1344V7.1741H37.6975C37.629 7.1741 37.5722 7.16251 37.5269 7.13803C37.4817 7.11612 37.4352 7.07489 37.3912 7.0182L33.7066 2.23804C33.7118 2.31148 33.7169 2.38364 33.7195 2.45579C33.7221 2.52666 33.7234 2.59108 33.7234 2.65035V7.1741H32.9686V0.82461H33.4119C33.4895 0.82461 33.5463 0.834917 33.5838 0.854244" fill="black"/>
<path d="M43.3777 0.82461H42.5156V7.1741H43.3777V0.82461Z" fill="black"/>
<path d="M50.9938 5.10227C51.0236 5.18087 51.0546 5.25946 51.0843 5.33935C51.114 5.25817 51.145 5.17829 51.1774 5.10227C51.2097 5.02754 51.2471 4.95152 51.2885 4.87422L53.4442 0.970205C53.483 0.901917 53.5218 0.860686 53.5644 0.845225C53.6045 0.831052 53.6639 0.82461 53.7415 0.82461H54.3774V7.1741H53.6213V2.50862C53.6213 2.44677 53.6226 2.37977 53.6265 2.3102C53.6291 2.23933 53.6342 2.16589 53.6381 2.09245L51.4565 6.06217C51.3828 6.19488 51.2782 6.26188 51.145 6.26188H51.021C50.8879 6.26188 50.7832 6.19617 50.7095 6.06217L48.4788 2.07956C48.4879 2.15558 48.4943 2.2316 48.4982 2.30504C48.5034 2.37977 48.5047 2.44677 48.5047 2.50862V7.1741H47.7486V0.82461H48.3845C48.462 0.82461 48.5202 0.83234 48.5628 0.845225C48.6042 0.860686 48.6442 0.901917 48.683 0.970205L50.8827 4.87808C50.924 4.94895 50.9602 5.02496 50.9925 5.10227" fill="black"/>
<path d="M63.8339 7.1741H63.167C63.0895 7.1741 63.0274 7.15478 62.9796 7.11612C62.9331 7.07876 62.8969 7.0298 62.8723 6.97053L62.2765 5.43727H59.419L58.8232 6.97053C58.8026 7.02335 58.7677 7.07103 58.7173 7.11226C58.6656 7.15349 58.6035 7.1741 58.5299 7.1741H57.863L60.4103 0.82461H61.2853L63.8313 7.1741H63.8339ZM59.662 4.81624H62.04L61.0397 2.23289C60.9738 2.07312 60.9105 1.87341 60.8484 1.63505C60.8161 1.75616 60.7838 1.86826 60.7528 1.96876C60.7218 2.07183 60.6921 2.16073 60.6623 2.23675L59.662 4.81495V4.81624Z" fill="black"/>
<path d="M68.2513 4.52504V7.17539H67.3932V0.82461H69.1935C69.5967 0.82461 69.9444 0.864552 70.2378 0.945724C70.5312 1.0269 70.7741 1.14543 70.9641 1.29876C71.1554 1.45209 71.2963 1.63633 71.3893 1.85408C71.4811 2.07183 71.5276 2.31406 71.5276 2.58206C71.5276 2.80754 71.4914 3.01627 71.4203 3.21082C71.3505 3.40538 71.2471 3.58061 71.1127 3.73651C70.9783 3.89113 70.8129 4.02384 70.619 4.13207C70.4252 4.24159 70.2055 4.32405 69.9586 4.38074C70.0659 4.44387 70.1602 4.53278 70.2442 4.65131L72.1027 7.17281H71.3376C71.1812 7.17281 71.0649 7.11226 70.9913 6.99114L69.3383 4.72218C69.2879 4.65131 69.2336 4.59977 69.1741 4.56885C69.1147 4.53922 69.0255 4.52247 68.9079 4.52247H68.2539L68.2513 4.52504ZM68.2513 3.90015H69.1534C69.4055 3.90015 69.6265 3.86922 69.8177 3.80867C70.009 3.7494 70.1693 3.66178 70.2972 3.55097C70.4265 3.44017 70.5234 3.30746 70.5893 3.15413C70.6539 3.00081 70.6875 2.83073 70.6875 2.64519C70.6875 2.26639 70.5622 1.98164 70.3114 1.78966C70.0607 1.59768 69.6885 1.50234 69.1935 1.50234H68.2513V3.89886V3.90015Z" fill="black"/>
<path d="M78.1499 4.64874V7.1741H77.2917V4.64874L74.9589 0.82461H75.7137C75.7913 0.82461 75.852 0.843937 75.8959 0.88259C75.9399 0.919955 75.9786 0.967628 76.011 1.02432L77.4688 3.49171C77.5282 3.59607 77.5774 3.69399 77.6174 3.78418C77.6575 3.87566 77.6937 3.96714 77.726 4.05347C77.7596 3.96328 77.7945 3.8718 77.8333 3.78032C77.872 3.68884 77.9198 3.59221 77.9806 3.49171L79.4333 1.02432C79.4604 0.976647 79.4966 0.931551 79.5431 0.889032C79.5896 0.846513 79.6491 0.82461 79.724 0.82461H80.4879L78.1512 4.64874H78.1499Z" fill="black"/>
<path d="M12.2888 0.140442C12.2643 0.0966344 12.1996 0.0631346 12.1454 0.0657115C12.0329 0.0760192 12.0045 0.134 11.9502 0.195845L9.29432 3.77903L6.63713 0.194557C6.61774 0.173942 6.60094 0.152038 6.58156 0.132711C6.55442 0.092769 6.49367 0.0618462 6.44327 0.0657115C6.44198 0.0657115 6.43939 0.0657115 6.43681 0.0657115H6.43293C6.38123 0.0618462 6.32308 0.092769 6.29464 0.132711C6.27526 0.152038 6.25716 0.172653 6.23907 0.194557L3.58188 3.77903L0.927276 0.195845C0.871703 0.134 0.84327 0.0760192 0.732123 0.0657115C0.679134 0.0618462 0.613221 0.0953459 0.588665 0.140442C0.562817 0.182961 0.55894 0.224191 0.557648 0.267999V7.72169C0.557648 7.76164 0.56411 7.80287 0.593835 7.84281C0.62356 7.88275 0.681719 7.90465 0.725661 7.90465H0.732123C0.778649 7.90465 0.835515 7.89048 0.874287 7.85054C0.91306 7.8106 0.922106 7.76293 0.922106 7.72169V0.793687L3.38156 4.11274C3.42033 4.17716 3.48366 4.24159 3.58317 4.24416C3.63358 4.24416 3.70337 4.23128 3.74214 4.17201C3.75248 4.15784 3.7654 4.1398 3.78091 4.11918L6.25329 0.783379V5.42567H6.61774V0.778226L6.62421 0.783379L9.09529 4.11918C9.1108 4.1398 9.12501 4.15784 9.13406 4.17201C9.17413 4.23128 9.24392 4.24416 9.29432 4.24416C9.39513 4.24287 9.45846 4.17716 9.49593 4.11274L11.9541 0.793687V7.72169C11.9541 7.76293 11.9644 7.8106 12.0032 7.85054C12.042 7.89048 12.0988 7.90594 12.1454 7.90465H12.1518C12.1971 7.90465 12.2539 7.88146 12.2837 7.84281C12.3134 7.80158 12.3198 7.76035 12.3198 7.72169V0.26671C12.3198 0.222903 12.3147 0.182961 12.2875 0.139153" fill="black"/>
<path d="M12.1234 7.97012H12.1208C12.0652 7.96497 11.9993 7.94564 11.9502 7.89411C11.8972 7.83741 11.8843 7.7717 11.8843 7.72145V1.00346L9.55797 4.14471C9.51532 4.213 9.43907 4.29804 9.28915 4.30319V4.30834C9.22582 4.30834 9.13148 4.28902 9.07332 4.20398C9.06556 4.19367 9.05264 4.17434 9.03713 4.15502L6.69012 0.988001V5.49114H6.1835V0.993155L3.84165 4.15502C3.82485 4.17563 3.81322 4.19367 3.80417 4.20784C3.74472 4.28644 3.65296 4.30834 3.58963 4.30834H3.58317C3.44618 4.30577 3.36346 4.21557 3.3234 4.14857L0.993188 1.00346V7.72016C0.993188 7.77041 0.980264 7.83613 0.925983 7.89411C0.869117 7.9508 0.79545 7.96884 0.733414 7.97012H0.72566C0.65587 7.97012 0.582203 7.94049 0.535676 7.87864C0.493027 7.82195 0.486565 7.76397 0.486565 7.72016V0.266468C0.486565 0.218795 0.491734 0.163392 0.524044 0.109277C0.566694 0.0409887 0.641653 0.00233518 0.724368 -0.000241729C0.737292 0.00104672 0.739876 0.00104672 0.738584 0.00104672C0.880749 0.0126428 0.938907 0.102834 0.985434 0.158238L3.58188 3.66412L6.18479 0.154373C6.20288 0.132469 6.22356 0.109277 6.23648 0.100258C6.27913 0.0384118 6.34892 0.00233518 6.42776 -0.000241729C6.43164 -0.000241729 6.43551 -0.000241729 6.43939 -0.000241729C6.44327 -0.000241729 6.44844 -0.000241729 6.44844 -0.000241729C6.44973 0.00104672 6.45102 0.00104672 6.45102 0.00104672C6.52857 0.00104672 6.59965 0.0371234 6.63325 0.0886615C6.65522 0.109277 6.6759 0.132469 6.69529 0.158238L9.29432 3.66412L11.8946 0.154373C11.9386 0.102834 11.9955 0.0126428 12.1105 0.0113543C12.1389 -0.00153018 12.148 -0.000241729 12.1505 -0.000241729C12.1518 0.00104672 12.1531 0.00104672 12.1531 0.00104672C12.2358 0.00104672 12.3095 0.0397003 12.3522 0.107988C12.3858 0.16468 12.3909 0.218795 12.3909 0.266468V7.72145C12.3909 7.76526 12.3845 7.82324 12.3431 7.87864C12.2966 7.94049 12.2229 7.97012 12.1531 7.97012H12.1234ZM12.1518 7.83999C12.1725 7.84257 12.2152 7.82453 12.2242 7.8052C12.2436 7.77943 12.2475 7.75495 12.2475 7.72145V0.266468C12.2475 0.227814 12.2436 0.200757 12.2268 0.171122L12.2875 0.1402L12.2255 0.171122C12.2203 0.154373 12.1738 0.128604 12.1531 0.129892C12.0704 0.1402 12.0678 0.16468 12.0084 0.232968L9.29432 3.89604L6.58026 0.232968C6.56346 0.213641 6.54795 0.194315 6.52081 0.167257C6.51177 0.149219 6.47041 0.127315 6.45102 0.129892H6.42776H6.42647H6.4213C6.40062 0.13118 6.36443 0.153084 6.34892 0.178853C6.33212 0.195603 6.31403 0.21493 6.29981 0.23168L3.58317 3.89604L0.871702 0.236833C0.808374 0.16468 0.805789 0.1402 0.724368 0.129892V0.120873V0.128604C0.702397 0.126027 0.657162 0.151796 0.6507 0.171122C0.632607 0.200757 0.628729 0.227814 0.627437 0.266468V7.72016C0.627437 7.75495 0.632607 7.77943 0.651993 7.80649C0.662332 7.82324 0.703689 7.84128 0.724368 7.83999H0.732122C0.76314 7.83999 0.80062 7.82839 0.820006 7.80907C0.843269 7.7833 0.849731 7.75495 0.851023 7.72145V0.584716L3.4423 4.08158C3.47849 4.13827 3.51984 4.17821 3.58317 4.17821H3.58705C3.62065 4.17821 3.66201 4.1679 3.68139 4.13827C3.69173 4.12281 3.70595 4.10348 3.72275 4.08158L6.32307 0.57312V5.35972H6.54666V0.604042L6.67073 0.734176L6.68236 0.745772L9.15345 4.08158C9.16895 4.10348 9.18317 4.12152 9.19351 4.13827C9.21419 4.1679 9.25167 4.17821 9.28786 4.17821C9.28786 4.18207 9.28786 4.18079 9.28915 4.17821C9.28915 4.17821 9.29044 4.17692 9.29044 4.17821C9.35248 4.17821 9.39642 4.13827 9.43519 4.07642L12.0252 0.584716V7.72145C12.0252 7.75624 12.0316 7.7833 12.0549 7.80907C12.0743 7.82968 12.1105 7.84128 12.1415 7.84128H12.1505L12.1518 7.83999ZM6.42259 0.00362363L6.40708 0.0113543C6.41354 0.00620053 6.41871 0.00620053 6.42259 0.00362363Z" fill="black"/>
<path d="M0.747631 8C0.606759 8 0.493027 7.87631 0.493027 7.72556C0.493027 7.57481 0.606759 7.45112 0.747631 7.45112H12.1027C12.2436 7.45112 12.3586 7.57481 12.3586 7.72556C12.3586 7.87631 12.2436 8 12.1027 8H0.747631Z" fill="black"/>
</g>
<defs>
<clipPath id="clip0_105_326">
<rect width="80" height="8" fill="white" transform="translate(0.486565)"/>
</clipPath>
</defs>
</svg>
