<?xml version="1.0" encoding="UTF-8"?>
<svg id="_레이어_2" data-name="레이어 2" xmlns="http://www.w3.org/2000/svg" viewBox="0 0 493.32 156.6">
  <g id="_레이어_1-2" data-name="레이어 1">
    <g>
      <path d="M25.09,140.52c.24.61.47,1.22.7,1.84.23-.63.47-1.25.72-1.84.25-.58.54-1.17.86-1.77l16.68-30.3c.29-.53.6-.85.92-.97.33-.11.78-.16,1.38-.16h4.92v49.28h-5.85v-36.21c0-.48.01-1,.04-1.54.02-.55.05-1.12.1-1.69l-16.88,30.81c-.58,1.03-1.38,1.55-2.41,1.55h-.96c-1.03,0-1.84-.51-2.41-1.55l-17.26-30.91c.07.59.12,1.18.16,1.75.03.58.05,1.1.05,1.58v36.21H0v-49.28h4.92c.59,0,1.05.06,1.37.16.33.12.64.44.93.97l17.03,30.33c.32.55.6,1.14.84,1.74"/>
      <rect x="85.14" y="107.32" width="6.67" height="49.28"/>
      <path d="M130.42,107.54c.28.15.61.45.98.91l28.54,37.13c-.06-.59-.11-1.17-.13-1.74-.02-.56-.04-1.1-.04-1.63v-34.91h5.85v49.28h-3.38c-.53,0-.97-.09-1.32-.28-.35-.17-.71-.49-1.05-.93l-28.51-37.1c.04.57.08,1.13.1,1.69.02.55.03,1.05.03,1.51v35.11h-5.84v-49.28h3.43c.6,0,1.04.08,1.33.23"/>
      <rect x="199.51" y="107.32" width="6.67" height="49.28"/>
      <path d="M265.11,140.52c.23.61.47,1.22.7,1.84.23-.63.47-1.25.72-1.84.25-.58.54-1.17.86-1.77l16.68-30.3c.3-.53.6-.85.93-.97.31-.11.77-.16,1.37-.16h4.92v49.28h-5.85v-36.21c0-.48.01-1,.04-1.54.02-.55.06-1.12.09-1.69l-16.88,30.81c-.57,1.03-1.38,1.55-2.41,1.55h-.96c-1.03,0-1.84-.51-2.41-1.55l-17.26-30.91c.07.59.12,1.18.15,1.75.04.58.05,1.1.05,1.58v36.21h-5.85v-49.28h4.92c.6,0,1.05.06,1.38.16.32.12.63.44.93.97l17.02,30.33c.32.55.6,1.14.85,1.74"/>
      <path d="M364.47,156.6h-5.16c-.6,0-1.08-.15-1.45-.45-.36-.29-.64-.67-.83-1.13l-4.61-11.9h-22.11l-4.61,11.9c-.16.41-.43.78-.82,1.1-.4.32-.88.48-1.45.48h-5.16l19.71-49.28h6.77l19.7,49.28ZM332.19,138.3h18.4l-7.74-20.05c-.51-1.24-1-2.79-1.48-4.64-.25.94-.5,1.81-.74,2.59-.24.8-.47,1.49-.7,2.08l-7.74,20.01Z"/>
      <path d="M398.65,136.03v20.57h-6.64v-49.28h13.93c3.12,0,5.81.31,8.08.94,2.27.63,4.15,1.55,5.62,2.74,1.48,1.19,2.57,2.62,3.29,4.31.71,1.69,1.07,3.57,1.07,5.65,0,1.75-.28,3.37-.83,4.88-.54,1.51-1.34,2.87-2.38,4.08-1.04,1.2-2.32,2.23-3.82,3.07-1.5.85-3.2,1.49-5.11,1.93.83.49,1.56,1.18,2.21,2.1l14.38,19.57h-5.92c-1.21,0-2.11-.47-2.68-1.41l-12.79-17.61c-.39-.55-.81-.95-1.27-1.19-.46-.23-1.15-.36-2.06-.36h-5.06ZM398.65,131.18h6.98c1.95,0,3.66-.24,5.14-.71,1.48-.46,2.72-1.14,3.71-2,1-.86,1.75-1.89,2.26-3.08.5-1.19.76-2.51.76-3.95,0-2.94-.97-5.15-2.91-6.64-1.94-1.49-4.82-2.23-8.65-2.23h-7.29v18.6Z"/>
      <path d="M475.24,137v19.6h-6.64v-19.6l-18.05-29.68h5.84c.6,0,1.07.15,1.41.45.34.29.64.66.89,1.1l11.28,19.15c.46.81.84,1.57,1.15,2.27.31.71.59,1.42.84,2.09.26-.7.53-1.41.83-2.12.3-.71.67-1.46,1.14-2.24l11.24-19.15c.21-.37.49-.72.85-1.05.36-.33.82-.5,1.4-.5h5.91l-18.08,29.68Z"/>
      <path d="M290.06,1.09c-.19-.34-.69-.6-1.11-.58-.87.08-1.09.53-1.51,1.01l-20.55,27.81L246.34,1.51c-.15-.16-.28-.33-.43-.48-.21-.31-.68-.55-1.07-.52-.01,0-.03,0-.05,0,0,0-.03,0-.03,0-.4-.03-.85.21-1.07.52-.15.15-.29.31-.43.48l-20.56,27.82L202.16,1.52c-.43-.48-.65-.93-1.51-1.01-.41-.03-.92.23-1.11.58-.2.33-.23.65-.24.99v57.85c0,.31.05.63.28.94.23.31.68.48,1.02.48h.05c.36,0,.8-.11,1.1-.42.3-.31.37-.68.37-1V6.16l19.03,25.76c.3.5.79,1,1.56,1.02.39,0,.93-.1,1.23-.56.08-.11.18-.25.3-.41l19.13-25.89v36.03h2.82V6.04l.05.04,19.12,25.89c.12.16.23.3.3.41.31.46.85.56,1.24.56.78-.01,1.27-.52,1.56-1.02l19.02-25.76v53.77c0,.32.08.69.38,1,.3.31.74.43,1.1.42h.05c.35,0,.8-.18,1.02-.48.23-.32.28-.64.28-.94V2.07c0-.34-.04-.65-.25-.99"/>
      <path d="M288.78,61.86h-.02c-.43-.04-.94-.19-1.32-.59-.41-.44-.51-.95-.51-1.34V7.79l-18,24.38c-.33.53-.92,1.19-2.08,1.23v.04c-.49,0-1.22-.15-1.67-.81-.06-.08-.16-.23-.28-.38l-18.16-24.58v34.95h-3.92V7.71l-18.12,24.54c-.13.16-.22.3-.29.41-.46.61-1.17.78-1.66.78h-.05c-1.06-.02-1.7-.72-2.01-1.24l-18.03-24.41v52.13c0,.39-.1.9-.52,1.35-.44.44-1.01.58-1.49.59h-.06c-.54,0-1.11-.23-1.47-.71-.33-.44-.38-.89-.38-1.23V2.07c0-.37.04-.8.29-1.22.32-.54.9-.83,1.55-.85.1.01.12.01.11.01,1.1.09,1.55.79,1.91,1.22l20.09,27.21L242.83,1.2c.14-.17.3-.35.4-.42.33-.48.87-.76,1.48-.78.03,0,.06,0,.09,0,.03,0,.07,0,.07,0,.01.01.02.01.02.01.6,0,1.15.28,1.42.68.17.16.33.34.48.54l20.11,27.21,20.12-27.25c.34-.4.78-1.1,1.67-1.11.22-.1.29-.09.31-.09.01.01.02.01.02.01.64,0,1.21.3,1.55.83h0c.26.44.3.86.3,1.23v57.86c0,.34-.05.79-.38,1.22-.36.48-.93.71-1.47.71h-.23ZM289,60.85c.16.02.49-.12.56-.27.15-.2.18-.39.18-.65V2.07c0-.3-.03-.51-.16-.74l.47-.24-.48.24c-.04-.13-.4-.33-.56-.32h0c-.64.08-.66.27-1.12.8l-21,28.43L245.89,1.81c-.13-.15-.25-.3-.46-.51-.07-.14-.39-.31-.54-.29h0s-.18,0-.18,0h-.01s0,0,0,0h-.04,0c-.16.01-.44.18-.56.38-.13.13-.27.28-.38.41l-21.02,28.44L201.72,1.84c-.49-.56-.51-.75-1.14-.83v-.07.06h0s0-.06,0-.06v.06c-.17-.02-.52.18-.57.33-.14.23-.17.44-.18.74v57.85c0,.27.04.46.19.67.08.13.4.27.56.26h.06c.24,0,.53-.09.68-.24.18-.2.23-.42.24-.68V4.54l20.05,27.14c.28.44.6.75,1.09.75h.03c.26,0,.58-.08.73-.31.08-.12.19-.27.32-.44l20.11-27.22v37.15h1.73V4.69l.96,1.01.09.09,19.12,25.89c.12.17.23.31.31.44.16.23.45.31.73.31,0,.03,0,.02.01,0,0,0,.01-.01.01,0,.48,0,.82-.31,1.12-.79l20.04-27.1v55.39c0,.27.05.48.23.68.15.16.43.25.67.25h.07ZM244.67.03l-.12.06c.05-.04.09-.04.12-.06h0ZM244.66,1.01h.04s-.04,0-.04,0Z"/>
      <path d="M200.76,62.09c-1.09,0-1.97-.96-1.97-2.13s.88-2.13,1.97-2.13h87.86c1.09,0,1.98.96,1.98,2.13s-.89,2.13-1.98,2.13h-87.86Z"/>
    </g>
  </g>
</svg>