<svg width="62" height="62" viewBox="0 0 62 62" fill="none" xmlns="http://www.w3.org/2000/svg">
<g clip-path="url(#clip0_81_43)">
<path d="M59.8849 13.7881L16.0156 0.717929C14.8974 0.384801 13.7264 1.00304 13.3999 2.09881L0.59112 45.0908C0.264653 46.1866 0.906424 47.3449 2.02455 47.678L45.8939 60.7482C47.012 61.0813 48.1831 60.4631 48.5096 59.3673L61.3184 16.3754C61.6448 15.2796 61.0031 14.1212 59.8849 13.7881Z" fill="#006EBA"/>
<path d="M16.9851 14.2915L23.574 16.2546L22.7552 19.0029L16.1663 17.0399L14.7952 21.6416L11.9908 20.8061L15.5452 8.87598L24.9385 11.6746L24.1197 14.423L17.5308 12.4599L16.9851 14.2915Z" fill="white"/>
<path d="M55.9558 20.9435L55.1388 23.6859L51.8514 22.7065L49.1211 31.8704L46.3227 31.0367L49.053 21.8727L45.7656 20.8933L46.5827 18.1509L55.9558 20.9435Z" fill="white"/>
<path d="M33.894 15.4703C33.371 14.5384 32.5922 13.9183 31.5516 13.6083L29.6826 13.0514C28.6441 12.742 27.6509 12.8342 26.7051 13.3285C25.7572 13.8222 25.1337 14.5785 24.8305 15.5963L23.4335 20.2852C23.1391 21.2733 23.2616 22.2282 23.8029 23.1505C24.3449 24.0708 25.1194 24.6831 26.1276 24.9835L27.9966 25.5404C29.0048 25.8408 29.9896 25.7547 30.9455 25.2785C31.9027 24.8048 32.5278 24.0727 32.8228 23.0826L34.2198 18.3937C34.523 17.3759 34.4131 16.4011 33.892 15.4697L33.894 15.4703ZM30.1209 23.1507L28.2634 21.4331L25.7895 21.9465L26.8593 19.6998L25.5714 17.5396L28.0894 17.8673L29.769 16.0178L30.2551 18.4694L32.5805 19.4877L30.3636 20.6748L30.1223 23.1533L30.1209 23.1507Z" fill="white"/>
<path d="M44.2411 18.5528C43.718 17.6209 42.9392 17.0008 41.8986 16.6908L40.0297 16.134C38.9911 15.8245 37.9979 15.9167 37.0521 16.411C36.1043 16.9047 35.4807 17.6611 35.1775 18.6788L33.7805 23.3677C33.4862 24.3558 33.6086 25.3107 34.15 26.233C34.6919 27.1533 35.4664 27.7657 36.4747 28.0661L38.3437 28.6229C39.3519 28.9233 40.3367 28.8372 41.2925 28.361C42.2498 27.8873 42.8749 27.1552 43.1699 26.1651L44.5668 21.4762C44.8701 20.4585 44.7601 19.4836 44.2391 18.5522L44.2411 18.5528ZM40.4659 26.2326L38.6084 24.5151L36.1346 25.0284L37.2023 22.7811L35.9144 20.6209L38.4324 20.9486L40.112 19.0991L40.5981 21.5507L42.9235 22.569L40.7066 23.7561L40.4653 26.2346L40.4659 26.2326Z" fill="white"/>
<path d="M29.5664 29.0279L27.8833 28.5265C26.9479 28.2478 26.0456 28.367 25.1705 28.8824C24.2974 29.3984 23.7102 30.1656 23.407 31.1834L25.9589 31.9437C26.0368 31.6823 26.1825 31.4885 26.394 31.3619C26.6076 31.2358 26.8336 31.2082 27.076 31.2805L28.7632 31.7831C29.0056 31.8554 29.1797 32.0021 29.2874 32.2239C29.3971 32.4463 29.4131 32.6882 29.3352 32.9496C29.2615 33.1971 29.1169 33.3868 28.901 33.5209C28.6871 33.6555 28.466 33.6888 28.2377 33.6207L26.5081 33.1054C25.5848 32.8303 24.6813 32.9535 23.8044 33.4749C22.927 33.9982 22.3372 34.7667 22.034 35.7845C21.7307 36.8023 21.8023 37.7657 22.2506 38.6754C22.701 39.5857 23.3909 40.1793 24.3264 40.458L26.0276 40.9649C26.9631 41.2436 27.8646 41.1198 28.7333 40.596C29.6027 40.0703 30.1867 39.3065 30.4852 38.3046L31.8562 33.7028C32.1594 32.685 32.0859 31.721 31.6375 30.8113C31.1892 29.9016 30.4973 29.3074 29.5618 29.0287L29.5664 29.0279ZM27.53 38.1226C27.3141 38.2566 27.0834 38.2849 26.841 38.2127L25.1397 37.7058C24.9094 37.6372 24.7385 37.4871 24.6225 37.2564C24.507 37.0236 24.4879 36.7851 24.5616 36.5376C24.6354 36.2901 24.7851 36.0975 25.0089 35.9594C25.2346 35.8219 25.463 35.7864 25.6913 35.8544L27.3926 36.3613C27.6371 36.4341 27.812 36.5854 27.9193 36.8157C28.0267 37.0461 28.0415 37.2919 27.9636 37.5533C27.8898 37.8008 27.7453 37.9906 27.5294 38.1246L27.53 38.1226Z" fill="white"/>
<path d="M39.3883 38.769C40.2675 38.2397 40.8567 37.4731 41.1558 36.4692C41.4549 35.4653 41.3895 34.4886 40.9452 33.5801C40.5009 32.6717 39.8151 32.0793 38.8897 31.8036L37.2005 31.3003C36.261 31.0204 35.3547 31.1384 34.4836 31.655C33.6125 32.1716 33.0274 32.9394 32.7242 33.9572L30.2612 42.2241L32.7848 42.976L34.1558 38.3742L35.0166 38.6306L34.7369 39.5692C34.4337 40.587 34.5012 41.5492 34.9415 42.4565C35.3817 43.3638 36.0675 43.9562 36.997 44.2331L38.6922 44.7381L39.511 41.9897L37.8219 41.4865C37.5956 41.4191 37.4288 41.2702 37.3168 41.0406C37.2054 40.8091 37.1862 40.5706 37.26 40.3231L37.572 39.2756C38.2159 39.2928 38.82 39.1257 39.3877 38.7709L39.3883 38.769ZM38.1879 36.2856C37.9659 36.4178 37.7407 36.4499 37.5124 36.3819L34.9747 35.6258L35.2478 34.709C35.3257 34.4477 35.4734 34.2545 35.689 34.129C35.9046 34.0036 36.1366 33.9778 36.3831 34.0513L38.0662 34.5527C38.3066 34.6244 38.4807 34.7711 38.5884 34.9929C38.6982 35.2153 38.7121 35.4566 38.6342 35.718C38.5604 35.9655 38.4119 36.154 38.1899 36.2862L38.1879 36.2856Z" fill="white"/>
<path d="M43.1281 33.0684L42.3093 35.8167L45.2734 36.6998L42.5378 45.8816L45.0635 46.6341L47.799 37.4523L50.7631 38.3354L51.5819 35.587L43.1281 33.0684Z" fill="white"/>
<path d="M20.2751 26.633L11.0818 23.894L7.65892 35.3826L10.1664 36.1297L12.7975 27.2984L15.307 28.0461L12.6759 36.8773L15.1874 37.6256L17.8185 28.7943L19.4915 29.2928C19.7279 29.3632 19.9051 29.5065 20.012 29.7238C20.1201 29.9371 20.1389 30.1691 20.0634 30.4225L17.6942 38.3746L20.2037 39.1223L22.5741 31.1662C22.8667 30.1841 22.7892 29.2555 22.3438 28.3726C21.9022 27.4994 21.21 26.9137 20.2705 26.6338L20.2751 26.633Z" fill="white"/>
<path d="M8.90994 39.291L7.24357 41.554L6.84149 41.4342L6.6894 38.6294L7.24504 38.7949L7.30463 40.6107L8.34824 39.1236L8.90792 39.2904L8.90994 39.291Z" fill="white"/>
<path d="M10.5309 42.5332L9.97126 42.3664L9.94295 41.8707L8.96704 41.58L8.66803 41.9781L8.10835 41.8114L9.86363 39.5748L10.2839 39.7L10.533 42.5338L10.5309 42.5332ZM9.92397 41.4102L9.86348 40.3875L9.24104 41.2067L9.92397 41.4102Z" fill="white"/>
<path d="M12.8747 43.2316L12.2524 43.0462L12.0184 41.8748L11.6325 41.7599L11.3311 42.7717L10.7956 42.6122L11.5508 40.0776L12.6277 40.3985C12.9005 40.4798 13.0963 40.62 13.2165 40.8218C13.331 41.0133 13.3556 41.219 13.2895 41.4408C13.2399 41.6071 13.147 41.7346 13.0099 41.8253C12.8866 41.9071 12.7478 41.952 12.5882 41.9562L12.8768 43.2322L12.8747 43.2316ZM12.7506 41.2781C12.7807 41.1771 12.7705 41.0857 12.7155 41.0046C12.6625 40.9241 12.577 40.8641 12.4598 40.8292L11.9546 40.6787L11.7564 41.344L12.2615 41.4945C12.3767 41.5288 12.4805 41.5274 12.5701 41.4851C12.6611 41.4454 12.7217 41.3751 12.7512 41.2761L12.7506 41.2781Z" fill="white"/>
<path d="M13.7759 43.5002L13.2405 43.3407L13.9956 40.8062L14.531 40.9657L13.7759 43.5002Z" fill="white"/>
<path d="M16.15 44.2072L14.3396 43.6678L15.0947 41.1333L16.9051 41.6727L16.7736 42.1142L15.5006 41.735L15.3237 42.329L16.4087 42.6523L16.2771 43.0938L15.1921 42.7706L15.0086 43.3864L16.2815 43.7656L16.15 44.2072Z" fill="white"/>
<path d="M18.988 42.7742L18.2708 42.5605L17.6472 44.6535L17.1097 44.4933L17.7333 42.4004L17.016 42.1867L17.1476 41.7451L19.1196 42.3326L18.988 42.7742Z" fill="white"/>
<path d="M21.3543 42.9985L20.0825 44.2473L19.7728 45.2868L19.2393 45.1279L19.5491 44.0884L19.1681 42.3472L19.75 42.5205L19.9588 43.6952L20.7683 42.8239L21.3502 42.9973L21.3543 42.9985Z" fill="white"/>
<path d="M23.9873 45.1627C23.9041 45.4419 23.8368 45.631 23.7865 45.7259C23.6976 45.8913 23.5737 46.0118 23.4136 46.0913C23.2849 46.1543 23.1551 46.1911 23.0244 46.2017C22.8916 46.2117 22.7471 46.1945 22.5915 46.1482C22.436 46.1018 22.3056 46.0371 22.2 45.9561C22.0923 45.8744 22.0019 45.772 21.9306 45.6494C21.8401 45.4953 21.8024 45.3267 21.8214 45.1448C21.8324 45.0338 21.8795 44.8387 21.9627 44.5595C22.0459 44.2803 22.1126 44.0933 22.1635 43.9963C22.253 43.8289 22.3754 43.7059 22.5323 43.6297C22.6611 43.5668 22.7908 43.53 22.9236 43.52C23.0564 43.5099 23.2029 43.5277 23.3585 43.5741C23.514 43.6204 23.6403 43.6839 23.746 43.765C23.8536 43.8466 23.9435 43.951 24.0154 44.0716C24.1044 44.2232 24.1401 44.3912 24.1246 44.5763C24.1138 44.6938 24.0687 44.8895 23.9873 45.1627ZM23.4498 45.0026C23.5218 44.761 23.5633 44.5923 23.571 44.4997C23.5788 44.4072 23.5643 44.3231 23.5268 44.2494C23.4691 44.133 23.3669 44.0552 23.2235 44.0124C23.1487 43.9902 23.0785 43.9822 23.0148 43.9891C22.9492 43.9954 22.8906 44.0146 22.8378 44.0441C22.7668 44.0833 22.7112 44.1444 22.6664 44.2281C22.6237 44.3124 22.5661 44.4763 22.4941 44.7178C22.4221 44.9594 22.3783 45.1361 22.3671 45.2254C22.3579 45.3154 22.3716 45.3949 22.4131 45.4698C22.4708 45.5862 22.573 45.6641 22.7205 45.708C22.868 45.7519 22.9927 45.7395 23.1041 45.6757C23.1711 45.6353 23.2293 45.5729 23.2778 45.4838C23.3264 45.3948 23.3828 45.2349 23.4513 45.0052L23.4498 45.0026Z" fill="white"/>
<path d="M26.5144 45.0164L25.2415 44.6372L25.0557 45.2609L26.1407 45.5842L26.0091 46.0258L24.9241 45.7025L24.6174 46.7321L24.0819 46.5726L24.8371 44.0381L26.6474 44.5775L26.5159 45.019L26.5144 45.0164Z" fill="white"/>
<path d="M29.5311 45.9154L28.2581 45.5361L28.0723 46.1599L29.1573 46.4831L29.0258 46.9247L27.9408 46.6014L27.634 47.6311L27.0986 47.4715L27.8537 44.937L29.6641 45.4764L29.5325 45.9179L29.5311 45.9154Z" fill="white"/>
<path d="M31.6127 47.4342C31.5295 47.7134 31.4622 47.9024 31.4119 47.9974C31.323 48.1628 31.1991 48.2833 31.0391 48.3628C30.9103 48.4257 30.7806 48.4625 30.6498 48.4732C30.517 48.4832 30.3725 48.466 30.217 48.4197C30.0614 48.3733 29.9311 48.3086 29.8254 48.2276C29.7178 48.1459 29.6273 48.0435 29.556 47.9209C29.4655 47.7668 29.4278 47.5982 29.4468 47.4163C29.4578 47.3053 29.505 47.1102 29.5881 46.831C29.6713 46.5518 29.7381 46.3647 29.7889 46.2678C29.8784 46.1004 30.0009 45.9774 30.1577 45.9012C30.2865 45.8383 30.4162 45.8015 30.549 45.7914C30.6818 45.7814 30.8283 45.7992 30.9839 45.8455C31.1395 45.8919 31.2657 45.9554 31.3714 46.0364C31.479 46.1181 31.5689 46.2225 31.6408 46.3431C31.7298 46.4946 31.7656 46.6627 31.75 46.8478C31.7392 46.9653 31.6941 47.1609 31.6127 47.4342ZM31.0752 47.2741C31.1472 47.0325 31.1887 46.8638 31.1965 46.7712C31.2042 46.6787 31.1897 46.5946 31.1522 46.5209C31.0945 46.4045 30.9923 46.3267 30.8489 46.2839C30.7741 46.2616 30.7039 46.2537 30.6402 46.2606C30.5746 46.2669 30.516 46.2861 30.4632 46.3156C30.3922 46.3548 30.3366 46.4159 30.2919 46.4996C30.2491 46.5838 30.1915 46.7478 30.1195 46.9893C30.0476 47.2309 30.0037 47.4076 29.9925 47.4969C29.9833 47.5869 29.997 47.6664 30.0385 47.7413C30.0962 47.8577 30.1984 47.9355 30.3459 47.9795C30.4934 48.0234 30.6181 48.011 30.7295 47.9472C30.7965 47.9068 30.8547 47.8444 30.9033 47.7553C30.9518 47.6663 31.0082 47.5063 31.0767 47.2766L31.0752 47.2741Z" fill="white"/>
<path d="M34.0211 48.152C33.938 48.4312 33.8706 48.6202 33.8203 48.7152C33.7315 48.8806 33.6076 49.0011 33.4475 49.0806C33.3188 49.1435 33.189 49.1803 33.0582 49.1909C32.9255 49.201 32.781 49.1838 32.6254 49.1374C32.4698 49.0911 32.3395 49.0264 32.2339 48.9453C32.1262 48.8637 32.0357 48.7613 31.9645 48.6387C31.874 48.4846 31.8362 48.3159 31.8552 48.134C31.8663 48.0231 31.9134 47.828 31.9966 47.5488C32.0798 47.2696 32.1465 47.0825 32.1974 46.9856C32.2869 46.8182 32.4093 46.6951 32.5662 46.619C32.6949 46.556 32.8247 46.5192 32.9575 46.5092C33.0903 46.4992 33.2368 46.517 33.3923 46.5633C33.5479 46.6097 33.6742 46.6732 33.7798 46.7542C33.8875 46.8359 33.9774 46.9403 34.0492 47.0608C34.1383 47.2124 34.174 47.3804 34.1585 47.5655C34.1477 47.683 34.1026 47.8787 34.0211 48.152ZM33.4837 47.9918C33.5557 47.7503 33.5971 47.5815 33.6049 47.489C33.6127 47.3964 33.5981 47.3123 33.5607 47.2387C33.503 47.1223 33.4008 47.0444 33.2573 47.0017C33.1826 46.9794 33.1124 46.9714 33.0487 46.9783C32.983 46.9846 32.9245 47.0039 32.8717 47.0334C32.8006 47.0726 32.745 47.1336 32.7003 47.2173C32.6576 47.3016 32.6 47.4655 32.528 47.7071C32.456 47.9487 32.4122 48.1253 32.401 48.2147C32.3918 48.3047 32.4055 48.3842 32.4469 48.4591C32.5047 48.5754 32.6069 48.6533 32.7544 48.6973C32.9019 48.7412 33.0265 48.7288 33.138 48.6649C33.205 48.6246 33.2632 48.5621 33.3117 48.4731C33.3602 48.3841 33.4167 48.2241 33.4851 47.9944L33.4837 47.9918Z" fill="white"/>
<path d="M36.5059 47.9934L35.7886 47.7797L35.165 49.8727L34.6276 49.7126L35.2511 47.6196L34.5339 47.4059L34.6654 46.9644L36.6374 47.5519L36.5059 47.9934Z" fill="white"/>
<path d="M40.0743 48.5758L38.5817 50.8907L38.1332 50.757L38.0864 49.068L37.1229 50.456L36.6744 50.3224L36.696 47.5693L37.2557 47.7361L37.2039 49.4604L38.1811 48.0118L38.5832 48.1316L38.6082 49.8788L39.5126 48.4085L40.0723 48.5752L40.0743 48.5758Z" fill="white"/>
<path d="M41.3963 51.7292L39.5859 51.1898L40.341 48.6553L42.1514 49.1946L42.0199 49.6362L40.7469 49.257L40.57 49.851L41.655 50.1743L41.5234 50.6158L40.4384 50.2926L40.2549 50.9084L41.5278 51.2876L41.3963 51.7292Z" fill="white"/>
<path d="M43.9664 52.4946L43.4067 52.3278L43.3784 51.8322L42.4025 51.5414L42.1035 51.9396L41.5438 51.7728L43.2991 49.5363L43.7193 49.6615L43.9684 52.4952L43.9664 52.4946ZM43.3594 51.3716L43.2989 50.349L42.6765 51.1682L43.3594 51.3716Z" fill="white"/>
<path d="M46.3082 53.1925L45.6858 53.0071L45.4519 51.8358L45.0659 51.7208L44.7645 52.7326L44.2291 52.5731L44.9842 50.0386L46.0611 50.3594C46.3339 50.4407 46.5297 50.581 46.6499 50.7828C46.7645 50.9743 46.789 51.1799 46.7229 51.4017C46.6734 51.568 46.5804 51.6955 46.4434 51.7862C46.32 51.8681 46.1812 51.9129 46.0216 51.9171L46.3102 53.1931L46.3082 53.1925ZM46.184 51.239C46.2141 51.138 46.204 51.0466 46.1489 50.9655C46.0959 50.885 46.0104 50.8251 45.8932 50.7902L45.3881 50.6397L45.1898 51.305L45.695 51.4555C45.8101 51.4898 45.9139 51.4884 46.0035 51.4461C46.0946 51.4064 46.1551 51.336 46.1846 51.237L46.184 51.239Z" fill="white"/>
</g>
<defs>
<clipPath id="clip0_81_43">
<rect width="50" height="49" fill="white" transform="translate(13.991 0.114746) rotate(16.5906)"/>
</clipPath>
</defs>
</svg>
