<svg width="25" height="29" viewBox="0 0 25 29" fill="none" xmlns="http://www.w3.org/2000/svg">
<path fill-rule="evenodd" clip-rule="evenodd" d="M15.9612 8.00113C23.1938 -0.481702 30.2519 12.0659 19.4467 14.0982C30.2519 16.2189 23.1066 28.6781 15.9612 20.1952C19.621 30.7987 5.41738 30.7104 9.07724 20.1952C1.84469 28.6781 -5.21355 16.2189 5.59166 14.0982C-5.30069 12.0659 1.84469 -0.393342 9.07724 8.00113C5.33025 -2.51405 19.621 -2.51405 15.9612 8.00113ZM12.4756 12.5077C13.3471 12.5077 14.1313 13.2146 14.1313 14.0982C14.1313 14.9818 13.3471 15.7771 12.4756 15.7771C11.6042 15.7771 10.9071 14.9818 10.9071 14.0982C10.9071 13.2146 11.6042 12.5077 12.4756 12.5077Z" fill="#EB5757"/>
</svg>
