<svg width="92" height="81" viewBox="0 0 92 81" fill="none" xmlns="http://www.w3.org/2000/svg">
<g clip-path="url(#clip0_81_32)">
<path d="M80.0148 59.1784L58.3729 24.3377C57.8013 23.4157 56.865 22.7839 55.7961 22.5988L15.3856 15.5655C12.1216 14.9975 9.70379 18.5803 11.452 21.3947L33.0921 56.238C33.6637 57.1599 34.6001 57.7918 35.6689 57.9768L76.0786 65.0059C79.3426 65.5739 81.7604 61.9911 80.0122 59.1767L80.0148 59.1784Z" fill="#E6F1F2"/>
<path d="M28.9285 31.4313C28.9505 31.2354 28.986 31.0411 29.0402 30.8521C29.0891 30.6706 29.1516 30.4909 29.226 30.3155C29.3028 30.1418 29.3847 29.9714 29.4767 29.8079C29.4777 29.7901 29.4854 29.7731 29.4957 29.7579L29.7083 29.4428C29.7083 29.4428 29.7186 29.4276 29.7305 29.4208C29.7399 29.4123 29.7476 29.4064 29.7527 29.3988C29.8092 29.326 29.8725 29.254 29.9315 29.1829C29.993 29.1135 30.0563 29.0415 30.1203 28.9738C30.181 28.9112 30.2484 28.8494 30.3225 28.7885C30.3967 28.7276 30.4725 28.6641 30.5517 28.6066C30.7017 28.4933 30.8667 28.3902 31.0402 28.2965C31.2137 28.2027 31.398 28.12 31.5899 28.0425C31.9211 27.9109 32.2646 27.821 32.6145 27.776C32.9644 27.7311 33.3224 27.7286 33.6885 27.7685C34.0545 27.8085 34.4017 27.8874 34.7349 28.0087C35.0681 28.13 35.3873 28.2937 35.6953 28.5014C36.0032 28.7092 36.2669 28.9389 36.5066 29.2042C36.7463 29.4695 36.9519 29.7636 37.1259 30.0881C37.2974 30.411 37.429 30.7439 37.5157 31.0835C37.6025 31.423 37.6518 31.7744 37.6571 32.1367C37.657 32.3437 37.6468 32.5439 37.6222 32.7382C37.5977 32.9324 37.5613 33.1223 37.5123 33.3038C37.4634 33.4852 37.4051 33.6641 37.3376 33.8404C37.27 34.0167 37.189 34.1803 37.0971 34.3327L37.08 34.3582C37.08 34.3582 37.0688 34.3802 37.0678 34.398L36.9512 34.5708C36.8346 34.7436 36.7028 34.9062 36.5619 35.0551C36.421 35.2041 36.2674 35.3446 36.1013 35.4765C35.93 35.605 35.753 35.7259 35.5667 35.8332C35.3829 35.9422 35.1815 36.0393 34.9701 36.1185C34.6288 36.2543 34.2827 36.3425 33.9353 36.3892C33.588 36.4358 33.2317 36.4358 32.8733 36.3899C32.5072 36.35 32.161 36.2643 31.8287 36.1362C31.4982 36.0056 31.1806 35.8393 30.8803 35.6367C30.5799 35.434 30.2994 35.1966 30.057 34.9406C29.8147 34.6846 29.6099 34.3948 29.4359 34.0703C29.2593 33.7551 29.1234 33.423 29.0342 33.0817C28.9424 32.7387 28.9015 32.3857 28.9029 32.0243L28.9098 32.0141C28.9014 31.8198 28.9081 31.6247 28.9276 31.427L28.9285 31.4313ZM31.4697 31.8185C31.4074 32.0686 31.3993 32.3147 31.4387 32.5557C31.4805 32.8095 31.5648 33.0328 31.6867 33.2223C31.8086 33.4118 31.9697 33.576 32.169 33.7105L32.2397 33.7582C32.2624 33.7736 32.2868 33.7863 32.3197 33.7975C32.345 33.8145 32.3702 33.8315 32.3938 33.8401C32.4183 33.8528 32.4444 33.8631 32.4773 33.8742C32.6712 33.957 32.8714 34.0033 33.0787 34.0063C33.286 34.0094 33.4936 33.9794 33.7057 33.9154C33.9212 33.8464 34.1168 33.7417 34.2949 33.603C34.473 33.4643 34.6276 33.295 34.7631 33.0942L34.8145 33.018C34.8155 33.0002 34.8216 32.9858 34.8301 32.9731L34.8559 32.9349C34.873 32.9095 34.8902 32.8841 34.9023 32.8553C34.9169 32.8282 34.929 32.7994 34.9386 32.7688C35.0412 32.546 35.1049 32.3264 35.1271 32.1084C35.1493 31.8904 35.1343 31.6732 35.0829 31.4609C35.0238 31.2436 34.9367 31.0516 34.8214 30.885C34.706 30.7185 34.5575 30.5739 34.3783 30.453C34.1739 30.315 33.9589 30.2254 33.7341 30.1883C33.5111 30.1488 33.2707 30.1567 33.0197 30.2129C32.7738 30.2725 32.5511 30.3738 32.3476 30.5175C32.1441 30.6612 31.9605 30.8517 31.7993 31.0905L31.8062 31.0804C31.6416 31.3243 31.5285 31.5735 31.468 31.8211L31.4697 31.8185Z" fill="#D6231E"/>
<path d="M36.3423 37.329C36.3781 37.2977 36.4122 37.2689 36.4471 37.2444C36.482 37.2199 36.5177 37.1996 36.5568 37.1853C36.5958 37.171 36.6324 37.1549 36.6697 37.1432L41.7259 35.5072L39.8911 34.269C39.8229 34.2341 39.7607 34.1847 39.7062 34.1294C39.6517 34.0741 39.6048 34.0129 39.5639 33.9484C39.518 33.8804 39.4805 33.8107 39.454 33.7411C39.4275 33.6714 39.407 33.5984 39.3925 33.522C39.3813 33.4405 39.377 33.3599 39.3784 33.287C39.3774 33.2123 39.3849 33.136 39.3991 33.0605C39.4133 32.985 39.435 32.9146 39.4627 32.8519C39.492 32.7867 39.5281 32.7223 39.571 32.6588C39.6138 32.5952 39.6618 32.5351 39.7181 32.4843C39.7718 32.4319 39.8332 32.3845 39.8961 32.3456C39.9608 32.3042 40.0313 32.2705 40.1069 32.2401C40.1825 32.2098 40.258 32.1904 40.3318 32.1736C40.4081 32.1586 40.4817 32.1528 40.5545 32.1538C40.6273 32.1549 40.7016 32.1644 40.7768 32.1781C40.8486 32.197 40.9169 32.2209 40.9861 32.2491C41.0552 32.2772 41.1235 32.3122 41.1866 32.3548L45.176 35.0321C45.1834 35.0482 45.1943 35.0593 45.2019 35.0644L45.2246 35.0797C45.2321 35.0959 45.2405 35.1052 45.2506 35.112L45.2733 35.1274C45.2935 35.141 45.3111 35.1529 45.3279 35.1716C45.3464 35.1878 45.3606 35.2048 45.3757 35.226C45.4872 35.3383 45.5674 35.459 45.6204 35.5872C45.6735 35.7155 45.7036 35.8504 45.7143 35.9871C45.7198 36.1313 45.7076 36.2636 45.6778 36.384C45.6479 36.5044 45.5953 36.6205 45.5216 36.7298L45.489 36.7781C45.4729 36.7857 45.4635 36.7941 45.46 36.7992L45.4137 36.8678C45.3976 36.8754 45.3882 36.8839 45.3848 36.889L45.3711 36.9093C45.3498 36.9245 45.3353 36.9406 45.3199 36.9525C45.3071 36.966 45.2918 36.9778 45.2756 36.9854C45.2543 37.0006 45.2373 37.015 45.2194 37.0252C45.2016 37.0353 45.1862 37.0471 45.1701 37.0547C45.1403 37.0716 45.108 37.0868 45.0774 37.0995C45.0469 37.1121 45.018 37.1222 44.9917 37.134C44.979 37.1366 44.9688 37.1408 44.9526 37.1484C44.9365 37.156 44.9246 37.1627 44.9136 37.1627C44.8924 37.1669 44.8754 37.1702 44.8635 37.177C44.8491 37.1821 44.8372 37.1888 44.821 37.1964L39.8509 38.7647L42.2031 40.352C42.3266 40.4465 42.4281 40.552 42.5091 40.6769C42.5875 40.8001 42.6472 40.9402 42.6814 41.0964C42.7046 41.2526 42.705 41.4045 42.6757 41.5512C42.6483 41.6953 42.5869 41.8352 42.4961 41.9699C42.4052 42.1045 42.2984 42.2137 42.175 42.2932C42.0516 42.3726 41.9099 42.4249 41.7522 42.4516C41.5912 42.4835 41.4414 42.4822 41.2987 42.4488C41.1585 42.4171 41.0236 42.3556 40.8949 42.2688L36.4505 39.2696C36.2915 39.1623 36.1614 39.0449 36.0669 38.9183C35.9706 38.7942 35.9076 38.6481 35.8769 38.4868C35.841 38.3331 35.8381 38.1796 35.869 38.0303C35.8999 37.8811 35.9587 37.7395 36.0496 37.6049L36.0685 37.5769C36.0685 37.5769 36.0796 37.5659 36.0923 37.5634L36.1506 37.477C36.1591 37.4643 36.1677 37.4516 36.1813 37.4423C36.1924 37.4313 36.2061 37.422 36.2222 37.4144L36.2291 37.4042C36.264 37.3797 36.3006 37.3527 36.3339 37.3197L36.3423 37.329Z" fill="#D6231E"/>
<path d="M43.232 43.2582C43.237 43.1691 43.248 43.0767 43.2632 42.9834C43.286 42.8952 43.3138 42.8105 43.3441 42.7274C43.377 42.646 43.4191 42.5672 43.4706 42.491L46.7715 37.5995C46.8675 37.4572 46.9879 37.3387 47.13 37.2423C47.2747 37.1477 47.4378 37.0802 47.62 37.0442C47.8023 37.0081 47.9783 37.0086 48.1438 37.0463C48.3094 37.0841 48.4729 37.1574 48.6319 37.2647C48.7807 37.3762 48.9015 37.5021 48.9967 37.644C49.0902 37.7885 49.1514 37.9481 49.1812 38.1272C49.2159 38.3097 49.2144 38.4862 49.1757 38.6524C49.137 38.8186 49.0679 38.9754 48.9685 39.1228L48.0425 40.4949L51.4261 39.6829C51.4651 39.6796 51.504 39.6763 51.5447 39.6704C51.5854 39.6646 51.6243 39.6613 51.6633 39.658C51.7023 39.6547 51.742 39.6556 51.7835 39.654C51.825 39.6525 51.8673 39.6551 51.9138 39.6569C51.9316 39.6578 51.9459 39.6638 51.9569 39.6638C51.9687 39.6681 51.9797 39.6681 51.9924 39.6656C52.005 39.6741 52.0177 39.6826 52.0287 39.6827C52.0405 39.6869 52.0515 39.6869 52.0642 39.6844C52.0895 39.6904 52.1106 39.6973 52.1359 39.7033C52.1596 39.7118 52.1849 39.7178 52.2178 39.7289L52.2506 39.7511C52.2506 39.7511 52.27 39.7605 52.2827 39.7579L52.3736 39.8193C52.3736 39.8193 52.3929 39.8286 52.4057 39.8261L52.4637 39.8653C52.5722 39.9385 52.6654 40.0236 52.7425 40.1163C52.8195 40.2089 52.8845 40.3194 52.9427 40.44C52.9992 40.5632 53.0362 40.688 53.052 40.817C53.0678 40.946 53.0624 41.0792 53.0315 41.2174C53.0133 41.2716 52.9993 41.3251 52.987 41.3759C52.973 41.4294 52.9599 41.476 52.9375 41.52C52.9244 41.5667 52.9062 41.6099 52.8788 41.6506L52.7999 41.7674C52.7519 41.8386 52.698 41.9021 52.6391 41.9622C52.5802 42.0223 52.5189 42.0696 52.4542 42.1111C52.3861 42.1575 52.3164 42.1956 52.2518 42.2259C52.1847 42.2546 52.1159 42.2748 52.0448 42.2823L49.5557 42.6995L49.9803 45.8151C49.9914 45.9076 49.9948 45.995 49.9874 46.0714C49.9808 46.1519 49.9674 46.2317 49.9497 46.3122C49.9271 46.3894 49.8976 46.4656 49.8674 46.5377C49.8371 46.6097 49.8001 46.6809 49.7572 46.7444C49.7007 46.8283 49.6357 46.9028 49.5666 46.9671C49.495 47.0297 49.4166 47.0914 49.3348 47.1472C49.2455 47.1979 49.1521 47.2384 49.057 47.2704C48.9637 47.2999 48.8637 47.3175 48.7587 47.3206C48.7088 47.3239 48.6605 47.3246 48.6115 47.3211C48.5624 47.3176 48.5176 47.3132 48.4711 47.3114C48.4457 47.3054 48.4246 47.2986 48.3993 47.2926C48.374 47.2865 48.3554 47.2814 48.3376 47.2805L48.3048 47.2584C48.3048 47.2584 48.2854 47.249 48.2727 47.2515C48.2601 47.243 48.25 47.2362 48.2415 47.2379C48.2323 47.2353 48.223 47.2327 48.2104 47.2242C48.1817 47.2123 48.153 47.2003 48.1269 47.1901C48.1024 47.1773 48.0763 47.167 48.0434 47.1559L48.0055 47.1304C47.9929 47.1219 47.9811 47.1176 47.9709 47.1218L47.8952 47.0707C47.8119 47.0145 47.7363 46.9524 47.6726 46.8835C47.6072 46.8172 47.5469 46.7432 47.4959 46.6718C47.4425 46.5877 47.3983 46.5061 47.3694 46.4238C47.3388 46.3439 47.3226 46.259 47.3167 46.1699L46.9444 42.1059L45.6858 43.971C45.6292 44.0549 45.5702 44.126 45.5095 44.1886C45.4489 44.2513 45.3782 44.3071 45.2974 44.3561C45.2292 44.4026 45.1519 44.4465 45.0661 44.4811C44.9803 44.5157 44.8954 44.5435 44.8107 44.5602C44.7344 44.5753 44.6565 44.5819 44.5727 44.5808C44.4889 44.5798 44.4086 44.5736 44.3359 44.5616C44.3055 44.5522 44.2701 44.5394 44.233 44.5291C44.1933 44.5171 44.1604 44.506 44.13 44.4966C44.0921 44.4821 44.0583 44.4667 44.0254 44.4556C43.9942 44.442 43.9588 44.4292 43.9209 44.4146L43.7291 44.2852C43.6711 44.235 43.6149 44.1823 43.5646 44.1261C43.5143 44.07 43.4657 44.0114 43.4239 43.9536C43.383 43.889 43.3523 43.8202 43.325 43.7463C43.3003 43.6741 43.2764 43.5952 43.2551 43.5179L43.262 43.5077C43.2424 43.4279 43.2329 43.3439 43.2397 43.2523L43.232 43.2582Z" fill="#D6231E"/>
<path d="M50.2481 47.9926C50.2531 47.9035 50.2624 47.8136 50.2724 47.7279C50.2952 47.6398 50.323 47.555 50.3534 47.4719C50.3863 47.3905 50.4284 47.3117 50.4799 47.2355L53.7739 42.3542C53.8733 42.2068 53.9954 42.0858 54.1376 41.9894C54.2823 41.8947 54.4436 41.8298 54.6276 41.7912C54.8098 41.7552 54.9859 41.7556 55.1514 41.7934C55.3169 41.8311 55.4754 41.9011 55.6293 42.005C55.7833 42.1089 55.9058 42.2322 56.001 42.3741C56.0945 42.5186 56.1557 42.6782 56.1855 42.8573C56.2203 43.0398 56.2187 43.2163 56.1851 43.3859C56.1514 43.5555 56.0806 43.7148 55.976 43.8698L52.6889 48.741C52.6374 48.8172 52.5784 48.8884 52.5195 48.9484C52.4589 49.0111 52.3882 49.0669 52.3073 49.1159C52.2392 49.1624 52.1618 49.2063 52.0761 49.2409C51.9903 49.2755 51.9054 49.3033 51.8206 49.32C51.7283 49.3317 51.6394 49.3382 51.5581 49.3389C51.4744 49.3378 51.3907 49.3258 51.308 49.2959C51.2278 49.2787 51.1434 49.2513 51.0616 49.2146C50.9799 49.178 50.9016 49.1362 50.8309 49.0885L50.735 49.0238C50.677 48.9736 50.6208 48.9208 50.5705 48.8647C50.5202 48.8086 50.4717 48.7499 50.4299 48.6921C50.389 48.6276 50.3583 48.5588 50.331 48.4849C50.3062 48.4127 50.2824 48.3337 50.261 48.2565L50.2679 48.2463C50.2483 48.1665 50.2389 48.0825 50.2456 47.9909L50.2481 47.9926Z" fill="#D6231E"/>
<path d="M53.8119 49.1181C53.8477 49.0868 53.8818 49.058 53.9168 49.0335C53.9517 49.009 53.9874 48.9887 54.0264 48.9744C54.0655 48.96 54.102 48.944 54.1394 48.9322L59.1956 47.2962L57.3633 46.0598C57.2951 46.0248 57.2329 45.9755 57.1784 45.9202C57.1238 45.8649 57.077 45.8037 57.0361 45.7391C56.9901 45.6711 56.9527 45.6015 56.9262 45.5318C56.8997 45.4622 56.8792 45.3892 56.8646 45.3128C56.8535 45.2313 56.8491 45.1507 56.8481 45.076C56.8471 45.0014 56.8545 44.925 56.8687 44.8496C56.8829 44.7741 56.9047 44.7037 56.9323 44.641C56.9616 44.5758 56.9978 44.5114 57.0406 44.4478C57.0835 44.3843 57.1314 44.3242 57.1877 44.2734C57.2415 44.221 57.3028 44.1736 57.3658 44.1347C57.4305 44.0933 57.501 44.0595 57.5766 44.0292C57.6522 43.9988 57.7276 43.9795 57.8014 43.9627C57.8777 43.9476 57.9514 43.9419 58.0241 43.9429C58.0969 43.9439 58.1713 43.9535 58.2465 43.9672C58.3183 43.9861 58.3866 44.01 58.4557 44.0382C58.5249 44.0663 58.5931 44.1013 58.6562 44.1439L62.6456 46.8212C62.6531 46.8373 62.664 46.8484 62.6716 46.8535L62.6968 46.8705C62.7043 46.8867 62.7152 46.8977 62.7227 46.9028L62.748 46.9198C62.7682 46.9335 62.7858 46.9454 62.8026 46.9641C62.8211 46.9803 62.8353 46.9973 62.8504 47.0185C62.9619 47.1308 63.0421 47.2515 63.0951 47.3797C63.1482 47.5079 63.1783 47.6429 63.189 47.7795C63.1945 47.9238 63.1823 48.0561 63.1525 48.1765C63.1227 48.2969 63.07 48.413 62.9963 48.5223L62.9637 48.5706C62.9476 48.5782 62.9382 48.5866 62.9347 48.5917L62.8884 48.6603C62.8748 48.6696 62.8629 48.6764 62.8595 48.6815L62.8458 48.7018C62.8245 48.717 62.81 48.7331 62.7946 48.7449C62.7818 48.7585 62.7665 48.7703 62.7503 48.7779C62.729 48.7931 62.712 48.8075 62.6941 48.8176C62.6763 48.8278 62.6609 48.8396 62.6448 48.8472C62.615 48.8641 62.5827 48.8793 62.5521 48.892C62.5216 48.9046 62.4927 48.9147 62.4664 48.9265C62.4537 48.929 62.4435 48.9333 62.4273 48.9409C62.4112 48.9485 62.3993 48.9552 62.3883 48.9552C62.3671 48.9594 62.3501 48.9627 62.3382 48.9695C62.3238 48.9745 62.3119 48.9813 62.2957 48.9889L57.3256 50.5572L59.6778 52.1445C59.8013 52.239 59.9028 52.3444 59.9838 52.4694C60.0622 52.5926 60.122 52.7327 60.1561 52.8889C60.1793 53.0451 60.1797 53.1969 60.1504 53.3437C60.1229 53.4878 60.0616 53.6277 59.9708 53.7623C59.8799 53.897 59.7731 54.0062 59.6497 54.0856C59.5263 54.1651 59.3846 54.2173 59.2269 54.2441C59.0659 54.2759 58.9161 54.2747 58.7734 54.2413C58.6332 54.2095 58.4983 54.1481 58.3696 54.0613L53.9252 51.0621C53.7662 50.9548 53.6361 50.8374 53.5416 50.7108C53.4453 50.5866 53.3823 50.4406 53.3515 50.2793C53.3157 50.1256 53.3128 49.9721 53.3437 49.8228C53.3746 49.6736 53.4334 49.532 53.5243 49.3973L53.5432 49.3694C53.5432 49.3694 53.5543 49.3584 53.567 49.3559L53.6253 49.2695C53.6338 49.2568 53.6424 49.2441 53.656 49.2348C53.6671 49.2238 53.6808 49.2145 53.6969 49.2069L53.7038 49.1967C53.7387 49.1722 53.7753 49.1451 53.8086 49.1121L53.8119 49.1181Z" fill="#D6231E"/>
<path d="M57.5947 39.3481L57.4827 40.1563C57.4746 40.2174 57.4977 40.2811 57.5431 40.3228L58.1442 40.8689C58.2609 40.9736 58.2033 41.1677 58.0482 41.1962L57.2472 41.3435C57.1854 41.3536 57.1342 41.3967 57.1075 41.4526L56.7718 42.195C56.7071 42.34 56.5081 42.3463 56.4332 42.2069L56.0502 41.4899C56.0202 41.4364 55.9647 41.3989 55.9038 41.3911L55.0956 41.3043C54.9383 41.2869 54.8715 41.0976 54.9799 40.9858L55.5445 40.3942C55.5863 40.3485 55.6072 40.2849 55.5933 40.2238L55.4302 39.4258C55.3986 39.2714 55.5596 39.147 55.6978 39.2144L56.4267 39.5658C56.4823 39.5922 56.5501 39.5898 56.6036 39.5594L57.3113 39.1531C57.4482 39.0753 57.6122 39.186 57.5914 39.3421" fill="#D51C19"/>
</g>
<defs>
<clipPath id="clip0_81_32">
<rect width="82.5046" height="41.2523" fill="white" transform="translate(23.0753 0.114746) rotate(34.0122)"/>
</clipPath>
</defs>
</svg>
