<svg width="19" height="21" viewBox="0 0 19 21" fill="none" xmlns="http://www.w3.org/2000/svg">
<path d="M4.75 20.1147C2.12665 20.1147 0 17.8762 0 15.1147C0 12.3533 2.12665 10.1147 4.75 10.1147C2.12665 10.1147 0 7.87621 0 5.11475C0 2.35328 2.12665 0.114746 4.75 0.114746C7.37339 0.114746 9.5 2.35328 9.5 5.11475C9.5 2.35328 11.6266 0.114746 14.25 0.114746C16.8734 0.114746 19 2.35328 19 5.11475C19 7.87621 16.8734 10.1147 14.25 10.1147C16.8734 10.1147 19 12.3533 19 15.1147C19 17.8762 16.8734 20.1147 14.25 20.1147C11.6266 20.1147 9.5 17.8762 9.5 15.1147C9.5 17.8762 7.37339 20.1147 4.75 20.1147Z" fill="#A483D0"/>
</svg>
