<svg width="27" height="28" viewBox="0 0 27 28" fill="none" xmlns="http://www.w3.org/2000/svg">
<path d="M13.1397 0.434779C13.1904 0.00806839 13.8096 0.00806839 13.8603 0.434779L14.285 4.0145C14.8335 8.63688 18.4779 12.2813 23.1002 12.8297L26.6799 13.2545C27.1067 13.3052 27.1067 13.9243 26.6799 13.975L23.1002 14.3998C18.4779 14.9482 14.8335 18.5926 14.285 23.215L13.8603 26.7947C13.8096 27.2214 13.1904 27.2214 13.1397 26.7947L12.715 23.215C12.1665 18.5926 8.52213 14.9482 3.89975 14.3998L0.320033 13.975C-0.106678 13.9243 -0.106678 13.3052 0.320033 13.2545L3.89975 12.8297C8.52213 12.2813 12.1665 8.63688 12.715 4.0145L13.1397 0.434779Z" fill="#F2994A"/>
</svg>
