<svg width="39" height="30" viewBox="0 0 39 30" fill="none" xmlns="http://www.w3.org/2000/svg">
<path d="M19.5 -9.88525L19.5038 9.59556L26.9624 -8.40091L19.5109 9.59855L33.2885 -4.17383L19.5162 9.6039L37.5156 2.15238L19.5192 9.61097L39 9.61475L19.5192 9.61852L37.5156 17.0771L19.5162 9.6256L33.2885 23.4033L19.5109 9.63094L26.9624 27.6304L19.5038 9.63393L19.5 29.1147L19.4962 9.63393L12.0376 27.6304L19.4891 9.63094L5.71142 23.4033L19.4838 9.6256L1.48434 17.0771L19.4808 9.61852L0 9.61475L19.4808 9.61097L1.48434 2.15238L19.4838 9.6039L5.71142 -4.17383L19.4891 9.59855L12.0376 -8.40091L19.4962 9.59556L19.5 -9.88525Z" stroke="white" stroke-width="4"/>
</svg>
