<svg width="88" height="82" viewBox="0 0 88 82" fill="none" xmlns="http://www.w3.org/2000/svg">
<g clip-path="url(#clip0_81_23)">
<path d="M51.6124 7.02024L76.2669 27.8744C77.0776 28.5616 77.4575 29.6291 77.2613 30.6725L71.2821 62.4C71.0867 63.4457 70.3432 64.3103 69.3339 64.6673L38.701 75.543C37.6917 75.9 36.5714 75.6986 35.7583 75.0123L11.1038 54.1581C10.2931 53.4709 9.91316 52.4034 10.1093 51.36L16.0886 19.6325C16.284 18.5868 17.0275 17.7222 18.0368 17.3652L48.6697 6.48951C49.679 6.13247 50.7992 6.33392 51.6124 7.02024Z" fill="black"/>
<path d="M38.9537 42.639C39.6181 42.7957 40.1644 43.1247 40.5544 43.6234C40.9445 44.1222 41.1776 44.7883 41.1498 45.421C41.1219 46.0538 40.83 46.6517 40.3428 47.191C39.8555 47.7304 39.1696 48.2095 38.0972 48.591C37.0224 48.9734 35.5641 49.2596 33.8393 49.0359C33.9065 48.563 33.9737 48.0902 34.0409 47.6173C34.0604 47.4896 34.1745 47.3975 34.3029 47.4083C35.4745 47.4974 36.599 47.366 37.4464 47.0703C38.3499 46.7525 38.9389 46.2463 39.0898 45.7393C39.2406 45.2322 38.9519 44.7273 38.4895 44.4718C38.027 44.2164 37.3909 44.2103 36.4915 44.2638C35.5921 44.3172 34.4238 44.4295 33.5865 44.2485C32.7493 44.0675 32.2374 43.5925 31.9337 43.006C31.6277 42.4204 31.5306 41.7256 31.6997 41.0335C31.868 40.3389 32.3057 39.6485 33.3203 39.0845C34.2971 38.5415 35.8072 38.1138 38.0283 38.1921C38.1709 38.198 38.2773 38.3216 38.2619 38.461C38.2081 38.9345 38.1544 39.4079 38.1014 39.8838C36.2541 39.8813 35.2513 40.073 34.5893 40.3757C33.9273 40.6783 33.6069 41.0941 33.5748 41.5075C33.5404 41.9217 33.7951 42.3358 34.3676 42.5032C34.941 42.673 35.8347 42.5952 36.6732 42.5497C37.5109 42.5018 38.2902 42.4846 38.9546 42.6413L38.9537 42.639Z" fill="white"/>
<path d="M39.6008 37.2852L47.9268 34.4049C47.7344 34.9685 47.5397 35.5328 47.3473 36.0963C47.3233 36.165 47.2707 36.22 47.1996 36.2446L44.5507 37.161L47.385 45.3543L45.6648 45.9494L42.8305 37.7561L39.3167 38.9716C39.3584 38.4786 39.3993 37.9833 39.441 37.4904C39.4489 37.3982 39.5108 37.3163 39.6008 37.2852Z" fill="white"/>
<path d="M61.338 29.2688C64.2405 28.2648 67.3811 29.7051 68.3397 32.4761C69.2982 35.2472 67.7167 38.3211 64.8165 39.3244C63.094 39.9202 61.201 39.6706 59.7482 38.6613C59.0844 38.1994 58.5357 37.5873 58.1566 36.8902C58.023 36.6419 57.9067 36.3824 57.8149 36.117C57.7231 35.8517 57.6517 35.5687 57.6026 35.2886C57.4722 34.5054 57.5277 33.6843 57.7643 32.9109C58.2836 31.222 59.6194 29.8607 61.3372 29.2665L61.338 29.2688ZM64.1861 37.6782C66.0626 37.0291 67.0669 34.9857 66.4219 33.1212C65.7769 31.2566 63.7246 30.2706 61.8481 30.9198C60.3175 31.4493 59.3203 32.938 59.4244 34.5427C59.4446 34.8617 59.5083 35.1763 59.6123 35.4768C59.7163 35.7774 59.8621 36.0688 60.0466 36.3336C60.9571 37.6541 62.6578 38.2069 64.1861 37.6782Z" fill="white"/>
<path d="M17.1403 44.1006L28.1295 40.2991L31.8973 51.1906L20.9081 54.9921L17.1403 44.1006ZM31.2172 50.8658L28.1871 42.1065L27.3204 48.1751L26.6822 47.565L27.6147 41.0425L24.7169 42.0449L24.259 45.2534L23.6208 44.6433L23.9555 42.3057L21.5317 43.1442L27.2026 48.563L26.7193 52.4192L31.2187 50.8626L31.2172 50.8658ZM23.36 46.4583L23.9981 47.0685L23.6874 49.2531L23.6695 49.3777L23.6584 49.4683C23.6582 49.5446 23.67 49.6246 23.6968 49.7021C23.7253 49.7843 23.7663 49.8569 23.8207 49.9222L23.8726 49.9726L23.9374 50.037L25.9699 52.0474L26.3264 49.1974L26.345 49.0595L26.348 49.0374C26.3473 48.9588 26.3355 48.8787 26.3079 48.7989C26.2803 48.719 26.2392 48.6464 26.1888 48.585L26.1768 48.5734L26.0427 48.4463L20.7751 43.4111L17.9603 44.3849L22.4435 48.6711L22.5114 48.7371C22.537 48.7729 22.562 48.8142 22.5798 48.8659C22.6018 48.9293 22.6094 48.9897 22.6059 49.0409C22.6052 49.0543 22.6022 49.0685 22.6007 49.0795L22.508 49.7242L18.2548 45.6581L21.25 54.3164L25.6144 52.8066L22.8516 50.0734L23.3679 46.4582L23.36 46.4583Z" fill="white"/>
<path d="M58.7186 39.5117C58.7601 39.5473 58.7851 39.5965 58.7903 39.6499C58.7921 39.6782 58.7908 39.705 58.7807 39.7295C58.7768 39.7414 58.773 39.7532 58.7659 39.7635C58.7558 39.7802 58.7464 39.7992 58.7363 39.8159C58.659 39.953 58.5762 40.0895 58.4895 40.222C58.326 40.4705 58.1498 40.705 57.9537 40.928C57.603 41.3254 57.2028 41.6715 56.7514 41.9539C56.3479 42.2065 55.9171 42.4029 55.4644 42.5437C55.0505 42.6738 54.6242 42.7529 54.1952 42.7935C53.6269 42.8455 53.0563 42.822 52.4969 42.7079C52.0001 42.6063 51.5273 42.4359 51.0817 42.1983C50.8708 42.0872 50.6709 41.9618 50.4772 41.8237C50.3824 41.7566 50.2891 41.6863 50.1997 41.612C50.1112 41.5401 50.0218 41.4659 49.9388 41.3868C49.601 41.0777 49.3089 40.7317 49.064 40.3458C48.8351 39.9833 48.6614 39.5963 48.5328 39.186C48.3943 38.7474 48.3079 38.2751 48.2841 37.8153C48.2543 37.2998 48.3022 36.7863 48.4317 36.2866C48.5789 35.715 48.8295 35.1893 49.1659 34.7048C49.284 34.5324 49.411 34.3702 49.5475 34.2126C49.6933 34.0438 49.848 33.8851 50.0099 33.7318C50.3604 33.4029 50.7516 33.115 51.1701 32.8756C51.6242 32.6159 52.1081 32.4196 52.6163 32.2938C53.1736 32.1562 53.7444 32.1113 54.3159 32.1528C54.6638 32.1771 55.0073 32.2344 55.3447 32.3202C55.5273 32.3648 55.7052 32.4189 55.8832 32.481C55.9761 32.5119 56.0675 32.546 56.1574 32.5833C56.2035 32.6015 56.2496 32.6198 56.2957 32.638C56.3084 32.6441 56.3211 32.6502 56.3338 32.6564C56.3442 32.6633 56.3546 32.6702 56.3649 32.6772C56.4032 32.7112 56.4282 32.7604 56.4334 32.8139C56.4351 32.8264 56.4344 32.8398 56.433 32.8508C56.4315 32.8619 56.4284 32.8761 56.4269 32.8871C56.4224 32.9123 56.417 32.9352 56.4101 32.9613C56.3888 33.0607 56.3675 33.1601 56.3462 33.2595C56.3035 33.4583 56.2609 33.6571 56.2174 33.8536C56.1748 34.0524 56.1321 34.2512 56.0886 34.4476C56.0879 34.4531 56.0848 34.4595 56.0849 34.4673C56.0849 34.4673 56.084 34.465 56.0809 34.4635C56.0801 34.4611 56.0745 34.4604 56.0713 34.4589C56.0586 34.4528 56.0482 34.4458 56.0355 34.4397C56.0124 34.4267 55.987 34.4144 55.9639 34.4014C55.9153 34.3761 55.8644 34.3517 55.8159 34.3264C55.7141 34.2775 55.6115 34.2341 55.5066 34.1915C55.0814 34.0283 54.6306 33.9292 54.1757 33.9025C53.6534 33.8728 53.1256 33.9424 52.6289 34.1168C52.4038 34.1947 52.1916 34.2944 51.9874 34.4176C51.7849 34.5376 51.5944 34.6771 51.4207 34.8345C50.6598 35.5184 50.2237 36.4896 50.2254 37.5066C50.2259 37.7536 50.2526 37.9994 50.3038 38.2394C50.3517 38.47 50.4233 38.6924 50.5163 38.9074C50.7143 39.3647 51.0046 39.7744 51.3734 40.1122C51.7559 40.4663 52.2129 40.7289 52.7109 40.8879C53.1851 41.0394 53.6862 41.0922 54.1825 41.0389C54.4128 41.0144 54.6437 40.9687 54.8649 40.9027C55.1035 40.8333 55.334 40.7404 55.5549 40.6272C56.0218 40.3894 56.4388 40.0611 56.7832 39.6685C56.9542 39.4727 57.1068 39.2621 57.2356 39.0361C57.2988 38.9275 57.3557 38.8158 57.4085 38.7002C57.4342 38.644 57.4575 38.5886 57.4823 38.5301C57.4877 38.515 57.494 38.5024 57.4994 38.4874C57.4994 38.4874 57.4986 38.485 57.5001 38.4818C57.5009 38.4842 57.5073 38.4872 57.5081 38.4896C57.5153 38.495 57.5193 38.4989 57.5265 38.5043C57.5496 38.5252 57.572 38.5438 57.5975 38.5638C57.9717 38.8788 58.3451 39.1913 58.7194 39.5062L58.7186 39.5117Z" fill="white"/>
</g>
<defs>
<clipPath id="clip0_81_23">
<rect width="71" height="62" fill="white" transform="translate(0 23.3262) rotate(-19.0822)"/>
</clipPath>
</defs>
</svg>
