<svg width="123" height="52" viewBox="0 0 123 52" fill="none" xmlns="http://www.w3.org/2000/svg">
<g clip-path="url(#clip0_81_76)">
<rect y="21.7993" width="118.149" height="31.2847" rx="15.6424" transform="rotate(-18.0889 0 21.7993)" fill="#4D5BFF"/>
<path d="M43.9263 19.4361C43.6961 20.8496 43.4915 22.7961 43.3125 25.2757C43.1345 27.7583 43.0931 29.1816 43.1955 29.5466C43.2778 29.8296 43.4755 29.9182 43.7866 29.8166C44.0275 29.7379 44.3521 29.5331 44.7564 29.2002L45.0498 29.5095C44.5087 30.0643 43.5829 30.8775 42.2704 31.943L41.9547 32.1959C41.7071 30.6525 41.6398 28.9378 41.7569 27.0539C41.0834 28.8982 40.3685 30.4087 39.609 31.5761C38.8506 32.7467 38.1354 33.44 37.4644 33.6592C36.8758 33.8514 36.4785 33.6373 36.2755 33.0157C36.0312 32.268 36.0777 30.5503 36.4168 27.8686L36.7486 25.2471C36.8478 24.4349 36.8578 23.8766 36.7756 23.5629C36.6964 23.2585 36.4957 23.1606 36.1755 23.2652C36.0321 23.312 35.8002 23.4491 35.4785 23.6733L35.2391 23.302L35.4305 23.1646C36.5603 22.387 37.4807 21.6811 38.1926 21.0501C38.4278 21.7702 38.4193 23.0874 38.162 24.9966L37.7829 27.7833C37.4923 29.9213 37.4169 31.1991 37.5526 31.6145C37.6792 32.0022 37.9133 32.1402 38.2519 32.0297C39.118 31.7467 39.9693 30.4573 40.8006 28.1665C41.6349 25.8747 42.1152 23.4908 42.2445 21.0138L42.2766 20.5232C42.7769 20.2985 43.3235 19.9361 43.9213 19.4309L43.9263 19.4361Z" fill="#F9F9F9"/>
<path d="M45.3113 18.8818C45.3375 18.6213 45.3513 18.467 45.3971 17.5326C45.3998 17.3342 45.4185 16.8956 45.4548 16.0972L45.4836 15.3692L45.7459 15.2836C46.0234 15.1929 46.2918 15.1155 46.6792 14.9685C46.5712 15.6712 46.497 16.2811 46.3967 17.1209L46.255 18.1854L46.1989 18.5613" fill="#F9F9F9"/>
<path d="M60.2356 24.2837L60.5687 24.5801C59.7484 25.7062 58.6597 26.6611 57.2922 27.4449C56.9959 25.897 57.1213 23.3566 57.6786 19.8238L58.003 17.862C58.1109 17.1899 58.1357 16.7698 58.0835 16.6098C58.0041 16.3667 57.8663 16.2755 57.668 16.3403C57.3905 16.4309 56.9694 16.9192 56.4039 17.802C55.8383 18.6848 55.3232 19.6601 54.8626 20.73C53.9036 22.9399 53.2992 25.4086 53.0584 28.1433C52.6697 28.3793 52.1494 28.791 51.4894 29.3743C51.756 27.411 51.9644 25.2385 52.1096 22.8517C52.2548 20.4649 52.2646 19.0791 52.1379 18.6914C52.0324 18.3684 51.851 18.2471 51.5918 18.3318C51.4576 18.3756 51.19 18.538 50.7859 18.8198C50.7523 18.841 50.7075 18.8692 50.6526 18.9076L50.4316 18.4997C51.5644 17.7312 52.5632 16.9555 53.4259 16.1765L53.5737 16.0397C53.6301 16.1507 53.6654 16.2277 53.6805 16.2739C53.9428 17.0769 53.9151 18.9759 53.6003 21.9698L53.5438 22.4377L53.6851 22.1055C54.5982 19.9412 55.5161 18.1737 56.4377 16.8C57.3594 15.4263 58.1684 14.6275 58.8637 14.4004C59.3029 14.2569 59.5928 14.4108 59.7405 14.8631C59.8883 15.3154 59.76 16.9067 59.3427 19.5867C58.8343 22.7834 58.6364 24.5541 58.7489 24.8987C58.8343 25.1602 58.9955 25.2506 59.2364 25.1719C59.5048 25.0843 59.8225 24.817 60.1886 24.3671L60.2376 24.2898L60.2356 24.2837Z" fill="#F9F9F9"/>
<path d="M68.0328 17.2791C68.2402 17.4906 68.3776 17.6943 68.443 17.8943C68.7254 18.7589 68.4563 19.9501 67.6378 21.4637C66.4442 23.6788 65.2375 24.9856 64.0236 25.3821C62.9776 25.7237 62.2601 25.2941 61.8691 24.0971C61.4279 22.7464 61.3722 21.1913 61.7042 19.4382C62.0361 17.6851 62.6842 16.1147 63.6444 14.7352C64.8169 13.0548 66.0105 12.018 67.2243 11.6215C67.9288 11.3914 68.368 11.5374 68.5389 12.0604C68.6505 12.402 68.6143 12.8701 68.4336 13.4637C68.2529 14.0574 67.9676 14.6307 67.5849 15.1848C67.2268 15.6899 66.7325 16.2123 66.1001 16.7458C65.4687 17.2824 64.9588 17.6123 64.5654 17.7408C64.1445 17.8783 63.7784 17.7391 63.463 17.3211C63.8562 17.254 64.1632 17.181 64.3858 17.1083C65.2794 16.8164 66.0184 16.289 66.6049 15.5219C67.1924 14.7579 67.3836 14.0723 67.1866 13.4692C67.0449 13.0354 66.697 12.9107 66.145 13.091C65.1538 13.4147 64.3413 14.3578 63.7054 15.9241C63.2558 17.0278 62.9816 18.2343 62.8858 19.5426C62.79 20.8508 62.8878 21.9562 63.1823 22.8578C63.4767 23.7593 64.0218 24.1261 64.7904 23.8751C65.6321 23.6001 66.3516 22.8475 66.9528 21.6194C67.5541 20.3912 67.9154 18.9451 68.0328 17.2791Z" fill="#F9F9F9"/>
<path d="M78.7736 18.1094L79.1291 18.3815C78.4219 19.3991 77.324 20.3774 75.8311 21.3146C75.5763 20.3898 75.5984 18.6494 75.8894 16.0889C75.1838 17.8347 74.3683 19.3576 73.4429 20.6576C72.5175 21.9576 71.6974 22.7227 70.9838 22.9558C70.3586 23.16 69.9138 22.8626 69.6515 22.0595C69.2072 20.6995 69.3297 19.0284 70.0178 17.0534C70.7089 15.0773 71.7974 13.2848 73.2886 11.6706C74.9612 9.83708 76.8176 8.58711 78.8549 7.92167C79.1415 7.82803 79.3201 7.88891 79.3904 8.10429C79.4497 8.28583 79.4271 8.6712 79.3235 9.26348C78.6814 9.35403 78.0747 9.4909 77.5014 9.67818C74.7779 10.5678 72.7783 12.4025 71.5118 15.1794C70.5757 17.2219 70.3604 19.0118 70.864 20.5533C71.0991 21.2734 71.48 21.5508 72.0076 21.3784C72.4529 21.233 72.9688 20.632 73.5562 19.5786C74.1406 18.5262 74.5954 17.3765 74.9215 16.1327C75.3681 14.4102 75.5048 12.731 75.3367 11.0901C75.7973 11.1985 76.1312 11.5695 76.3372 12.2003C76.6227 13.0742 76.5121 14.2238 76.0077 15.6451C76.4257 15.4677 76.9151 15.1682 77.4791 14.7456L77.4478 15.0112C77.2271 17.2082 77.17 18.4697 77.2755 18.7928C77.3609 19.0544 77.5201 19.1386 77.755 19.0414C77.9716 18.9502 78.3128 18.6413 78.7706 18.1104L78.7736 18.1094Z" fill="#F9F9F9"/>
<path d="M86.3682 5.5459L86.3326 7.06946C85.97 7.10619 85.66 7.16997 85.3977 7.25564C84.3608 7.59433 83.5161 8.75902 82.8594 10.7476C82.5577 11.6941 82.3512 12.6843 82.2492 13.7154C82.1472 14.7464 82.1024 16.2832 82.1168 18.3216L82.1202 18.8279C81.5819 19.1433 81.0771 19.4785 80.6078 19.8293L80.6246 19.3743L80.7717 15.8257C80.8929 12.4149 80.8651 10.4388 80.6882 9.89723C80.5967 9.61723 80.4295 9.51862 80.1886 9.59732C80.0544 9.64115 79.7957 9.86185 79.4115 10.2563L79.101 9.89466C80.1514 8.87392 81.0516 7.82733 81.7986 6.75588C81.8885 6.907 81.955 7.04872 81.9992 7.1841C82.2264 7.87949 82.2962 9.13703 82.2098 10.9598L82.4064 10.4767C83.7326 7.48965 84.8318 5.85366 85.698 5.57075C85.887 5.50898 86.1105 5.5007 86.3713 5.54491L86.3682 5.5459Z" fill="#F9F9F9"/>
</g>
<defs>
<clipPath id="clip0_81_76">
<rect y="21.7993" width="118.149" height="31.2847" rx="15.6424" transform="rotate(-18.0889 0 21.7993)" fill="white"/>
</clipPath>
</defs>
</svg>
